<?xml version="1.0" encoding="UTF-8" standalone="no"?><svg xmlns="http://www.w3.org/2000/svg" xmlns:xlink="http://www.w3.org/1999/xlink" contentScriptType="application/ecmascript" contentStyleType="text/css" height="859px" preserveAspectRatio="none" style="width:3583px;height:859px;" version="1.1" viewBox="0 0 3583 859" width="3583px" zoomAndPan="magnify"><defs><filter height="300%" id="fy0u7yxyowlww" width="300%" x="-1" y="-1"><feGaussianBlur result="blurOut" stdDeviation="2.0"/><feColorMatrix in="blurOut" result="blurOut2" type="matrix" values="0 0 0 0 0 0 0 0 0 0 0 0 0 0 0 0 0 0 .4 0"/><feOffset dx="4.0" dy="4.0" in="blurOut2" result="blurOut3"/><feBlend in="SourceGraphic" in2="blurOut3" mode="normal"/></filter></defs><g><text fill="#000000" font-family="sans-serif" font-size="18" lengthAdjust="spacingAndGlyphs" textLength="477" x="1556.5" y="16.708">Yuhesen UGV — Yocto Project Architecture Overview</text><!--MD5=[6b02a3addddfdd4df2d778aa22eb9aa9]
cluster BuildTime--><polygon fill="#A9DCDF" filter="url(#fy0u7yxyowlww)" points="30,74.9531,280,74.9531,287,97.25,1555,97.25,1555,665.9531,30,665.9531,30,74.9531" style="stroke: #666666; stroke-width: 1.5;"/><line style="stroke: #666666; stroke-width: 1.5;" x1="30" x2="287" y1="97.25" y2="97.25"/><text fill="#000000" font-family="sans-serif" font-size="14" font-weight="bold" lengthAdjust="spacingAndGlyphs" textLength="244" x="34" y="89.9482">Development Host (Build-Time)</text><!--MD5=[a119ce7e7c0887a7ee0014e9b88baf41]
cluster Yocto--><rect fill="#A9DCDF" filter="url(#fy0u7yxyowlww)" height="99" style="stroke: #666666; stroke-width: 1.5;" width="311" x="926" y="168.9531"/><text fill="#000000" font-family="sans-serif" font-size="14" font-weight="bold" lengthAdjust="spacingAndGlyphs" textLength="192" x="985.5" y="183.9482">Yocto Build Environment</text><!--MD5=[cebc4953025eb699f5485e442f7506a9]
cluster Upstream--><rect fill="#A9DCDF" filter="url(#fy0u7yxyowlww)" height="85" style="stroke: #666666; stroke-width: 1.5;" width="448" x="1075" y="541.9531"/><text fill="#000000" font-family="sans-serif" font-size="14" font-weight="bold" lengthAdjust="spacingAndGlyphs" textLength="225" x="1186.5" y="556.9482">Upstream Layers (kirkstone)</text><!--MD5=[2dbe23f81ede0036f334dba50998f47e]
cluster CustomLayer--><rect fill="#A9DCDF" filter="url(#fy0u7yxyowlww)" height="346" style="stroke: #666666; stroke-width: 1.5;" width="527" x="375" y="125.9531"/><text fill="#000000" font-family="sans-serif" font-size="14" font-weight="bold" lengthAdjust="spacingAndGlyphs" textLength="269" x="504" y="140.9482">Custom Layer: meta-yuhesen_ugv</text><!--MD5=[00938d73fdd646a72c7d286bb85d8a8c]
cluster Recipes--><polygon fill="#F5F5F5" filter="url(#fy0u7yxyowlww)" points="495,168.9531,563,168.9531,570,191.25,878,191.25,878,447.9531,495,447.9531,495,168.9531" style="stroke: #666666; stroke-width: 1.5;"/><line style="stroke: #666666; stroke-width: 1.5;" x1="495" x2="570" y1="191.25" y2="191.25"/><text fill="#000000" font-family="sans-serif" font-size="14" font-weight="bold" lengthAdjust="spacingAndGlyphs" textLength="62" x="499" y="183.9482">Recipes</text><!--MD5=[1b9b9f50158af29988367486f81174ea]
cluster Artifacts--><rect fill="#A9DCDF" filter="url(#fy0u7yxyowlww)" height="99" style="stroke: #666666; stroke-width: 1.5;" width="981" x="70" y="534.9531"/><text fill="#000000" font-family="sans-serif" font-size="14" font-weight="bold" lengthAdjust="spacingAndGlyphs" textLength="110" x="505.5" y="549.9482">Build Artifacts</text><!--MD5=[af965a18227591b6735532427b401b4e]
cluster RunTime--><polygon fill="#FEF0D9" filter="url(#fy0u7yxyowlww)" points="1892,117.9531,2274,117.9531,2281,140.25,3259,140.25,3259,847.9531,1892,847.9531,1892,117.9531" style="stroke: #666666; stroke-width: 1.5;"/><line style="stroke: #666666; stroke-width: 1.5;" x1="1892" x2="2281" y1="140.25" y2="140.25"/><text fill="#000000" font-family="sans-serif" font-size="14" font-weight="bold" lengthAdjust="spacingAndGlyphs" textLength="376" x="1896" y="132.9482">Target Hardware — i.MX8M Mini EVK (Run-Time)</text><!--MD5=[e692fe18be4ed1c2aba150d126b5d675]
cluster BootChain--><rect fill="#FEF0D9" filter="url(#fy0u7yxyowlww)" height="279" style="stroke: #666666; stroke-width: 1.5;" width="158" x="3069" y="168.9531"/><text fill="#000000" font-family="sans-serif" font-size="14" font-weight="bold" lengthAdjust="spacingAndGlyphs" textLength="85" x="3105.5" y="183.9482">Boot Chain</text><!--MD5=[1e105b1eb44065491b28972ed5c3edce]
cluster KernelSpace--><rect fill="#FEF0D9" filter="url(#fy0u7yxyowlww)" height="467" style="stroke: #666666; stroke-width: 1.5;" width="718" x="2327" y="348.9531"/><text fill="#000000" font-family="sans-serif" font-size="14" font-weight="bold" lengthAdjust="spacingAndGlyphs" textLength="105" x="2633.5" y="363.9482">Kernel Space</text><!--MD5=[3234e32c6163dbcfb128d73892e1b63f]
cluster Sysfs--><rect fill="#FEF0D9" filter="url(#fy0u7yxyowlww)" height="127" style="stroke: #666666; stroke-width: 1.5;" width="142" x="2161" y="520.9531"/><text fill="#000000" font-family="sans-serif" font-size="14" font-weight="bold" lengthAdjust="spacingAndGlyphs" textLength="119" x="2172.5" y="535.9482">Sysfs Interface</text><!--MD5=[19741e007bdf8b18f255d60ef06db1fd]
cluster UserSpace--><rect fill="#FEF0D9" filter="url(#fy0u7yxyowlww)" height="281" style="stroke: #666666; stroke-width: 1.5;" width="205" x="1932" y="534.9531"/><text fill="#000000" font-family="sans-serif" font-size="14" font-weight="bold" lengthAdjust="spacingAndGlyphs" textLength="90" x="1989.5" y="549.9482">User Space</text><!--MD5=[face68ac7b50d749f235f11a2e656eb8]
entity BitBake--><rect fill="#FFFFFF" filter="url(#fy0u7yxyowlww)" height="47.9375" style="stroke: #333333; stroke-width: 1.5;" width="108" x="942" y="203.9531"/><rect fill="#FFFFFF" height="5" style="stroke: #333333; stroke-width: 1.5;" width="10" x="937" y="208.9531"/><rect fill="#FFFFFF" height="5" style="stroke: #333333; stroke-width: 1.5;" width="10" x="937" y="241.8906"/><text fill="#000000" font-family="sans-serif" font-size="12" lengthAdjust="spacingAndGlyphs" textLength="47" x="952" y="225.0918">BitBake</text><text fill="#000000" font-family="sans-serif" font-size="12" lengthAdjust="spacingAndGlyphs" textLength="88" x="952" y="239.0605">Task Executor</text><!--MD5=[49e0b0708421706bbc093b201584d95a]
entity Poky--><rect fill="#FFFFFF" filter="url(#fy0u7yxyowlww)" height="47.9375" style="stroke: #333333; stroke-width: 1.5;" width="135" x="1085.5" y="203.9531"/><rect fill="#FFFFFF" height="5" style="stroke: #333333; stroke-width: 1.5;" width="10" x="1080.5" y="208.9531"/><rect fill="#FFFFFF" height="5" style="stroke: #333333; stroke-width: 1.5;" width="10" x="1080.5" y="241.8906"/><text fill="#000000" font-family="sans-serif" font-size="12" lengthAdjust="spacingAndGlyphs" textLength="29" x="1095.5" y="225.0918">Poky</text><text fill="#000000" font-family="sans-serif" font-size="12" lengthAdjust="spacingAndGlyphs" textLength="115" x="1095.5" y="239.0605">(Reference Distro)</text><!--MD5=[6e6b1a3a6caa8556e88ffcae421741a9]
entity MF--><rect fill="#FFFFFF" filter="url(#fy0u7yxyowlww)" height="33.9688" style="stroke: #333333; stroke-width: 1.5;" width="114" x="1393" y="576.9531"/><rect fill="#FFFFFF" height="5" style="stroke: #333333; stroke-width: 1.5;" width="10" x="1388" y="581.9531"/><rect fill="#FFFFFF" height="5" style="stroke: #333333; stroke-width: 1.5;" width="10" x="1388" y="600.9219"/><text fill="#000000" font-family="sans-serif" font-size="12" lengthAdjust="spacingAndGlyphs" textLength="94" x="1403" y="598.0918">meta-freescale</text><!--MD5=[35a837f60ccabd384bbc7f21f78b462e]
entity MIMX--><rect fill="#FFFFFF" filter="url(#fy0u7yxyowlww)" height="33.9688" style="stroke: #333333; stroke-width: 1.5;" width="76" x="1282" y="576.9531"/><rect fill="#FFFFFF" height="5" style="stroke: #333333; stroke-width: 1.5;" width="10" x="1277" y="581.9531"/><rect fill="#FFFFFF" height="5" style="stroke: #333333; stroke-width: 1.5;" width="10" x="1277" y="600.9219"/><text fill="#000000" font-family="sans-serif" font-size="12" lengthAdjust="spacingAndGlyphs" textLength="56" x="1292" y="598.0918">meta-imx</text><!--MD5=[dc31fb375d09872bf665e61fc095ca46]
entity MOE--><rect fill="#FFFFFF" filter="url(#fy0u7yxyowlww)" height="33.9688" style="stroke: #333333; stroke-width: 1.5;" width="155" x="1091.5" y="576.9531"/><rect fill="#FFFFFF" height="5" style="stroke: #333333; stroke-width: 1.5;" width="10" x="1086.5" y="581.9531"/><rect fill="#FFFFFF" height="5" style="stroke: #333333; stroke-width: 1.5;" width="10" x="1086.5" y="600.9219"/><text fill="#000000" font-family="sans-serif" font-size="12" lengthAdjust="spacingAndGlyphs" textLength="135" x="1101.5" y="598.0918">meta-openembedded</text><!--MD5=[8a3ed617d33f10ac88a1256d502f00bf]
entity LayerConf--><rect fill="#FFFFFF" filter="url(#fy0u7yxyowlww)" height="47.9375" style="stroke: #333333; stroke-width: 1.5;" width="85" x="391.5" y="203.9531"/><rect fill="#FFFFFF" height="5" style="stroke: #333333; stroke-width: 1.5;" width="10" x="386.5" y="208.9531"/><rect fill="#FFFFFF" height="5" style="stroke: #333333; stroke-width: 1.5;" width="10" x="386.5" y="241.8906"/><text fill="#000000" font-family="sans-serif" font-size="12" lengthAdjust="spacingAndGlyphs" textLength="61" x="401.5" y="225.0918">layer.conf</text><text fill="#000000" font-family="sans-serif" font-size="12" lengthAdjust="spacingAndGlyphs" textLength="65" x="401.5" y="239.0605">(priority 5)</text><!--MD5=[20b4132f4c945376e993f75ec2d46ea0]
entity KmRecipe--><rect fill="#D5E8D4" filter="url(#fy0u7yxyowlww)" height="47.9375" style="stroke: #333333; stroke-width: 1.5;" width="152" x="710" y="383.9531"/><rect fill="#D5E8D4" height="5" style="stroke: #333333; stroke-width: 1.5;" width="10" x="705" y="388.9531"/><rect fill="#D5E8D4" height="5" style="stroke: #333333; stroke-width: 1.5;" width="10" x="705" y="421.8906"/><text fill="#000000" font-family="sans-serif" font-size="12" lengthAdjust="spacingAndGlyphs" textLength="132" x="720" y="405.0918">mock-adxl345_1.0.bb</text><text fill="#000000" font-family="sans-serif" font-size="12" lengthAdjust="spacingAndGlyphs" textLength="98" x="720" y="419.0605">(Kernel Module)</text><!--MD5=[e572556e1a0e942fb089ac0401969c0f]
entity AppRecipe--><rect fill="#D5E8D4" filter="url(#fy0u7yxyowlww)" height="47.9375" style="stroke: #333333; stroke-width: 1.5;" width="154" x="708" y="203.9531"/><rect fill="#D5E8D4" height="5" style="stroke: #333333; stroke-width: 1.5;" width="10" x="703" y="208.9531"/><rect fill="#D5E8D4" height="5" style="stroke: #333333; stroke-width: 1.5;" width="10" x="703" y="241.8906"/><text fill="#000000" font-family="sans-serif" font-size="12" lengthAdjust="spacingAndGlyphs" textLength="134" x="718" y="225.0918">mock-adxl345-app.bb</text><text fill="#000000" font-family="sans-serif" font-size="12" lengthAdjust="spacingAndGlyphs" textLength="110" x="718" y="239.0605">(User-Space App)</text><!--MD5=[cd1841a7ae2f379e6d9b7479d3b19b6f]
entity ImgRecipe--><rect fill="#D5E8D4" filter="url(#fy0u7yxyowlww)" height="47.9375" style="stroke: #333333; stroke-width: 1.5;" width="161" x="511.5" y="203.9531"/><rect fill="#D5E8D4" height="5" style="stroke: #333333; stroke-width: 1.5;" width="10" x="506.5" y="208.9531"/><rect fill="#D5E8D4" height="5" style="stroke: #333333; stroke-width: 1.5;" width="10" x="506.5" y="241.8906"/><text fill="#000000" font-family="sans-serif" font-size="12" lengthAdjust="spacingAndGlyphs" textLength="141" x="521.5" y="225.0918">yuhesen-ugv-image.bb</text><text fill="#000000" font-family="sans-serif" font-size="12" lengthAdjust="spacingAndGlyphs" textLength="81" x="521.5" y="239.0605">(Final Image)</text><!--MD5=[0e56d2301622a9c1be95f9e73d43561a]
entity KoFile--><rect fill="#F8CECC" filter="url(#fy0u7yxyowlww)" height="33.9688" style="stroke: #333333; stroke-width: 1.5;" width="127" x="733.5" y="576.9531"/><rect fill="#F8CECC" height="5" style="stroke: #333333; stroke-width: 1.5;" width="10" x="728.5" y="581.9531"/><rect fill="#F8CECC" height="5" style="stroke: #333333; stroke-width: 1.5;" width="10" x="728.5" y="600.9219"/><text fill="#000000" font-family="sans-serif" font-size="12" lengthAdjust="spacingAndGlyphs" textLength="107" x="743.5" y="598.0918">mock_adxl345.ko</text><!--MD5=[ed8850fa3907e7eb31646489bb2e2c44]
entity DtboFile--><rect fill="#F8CECC" filter="url(#fy0u7yxyowlww)" height="33.9688" style="stroke: #333333; stroke-width: 1.5;" width="139" x="895.5" y="576.9531"/><rect fill="#F8CECC" height="5" style="stroke: #333333; stroke-width: 1.5;" width="10" x="890.5" y="581.9531"/><rect fill="#F8CECC" height="5" style="stroke: #333333; stroke-width: 1.5;" width="10" x="890.5" y="600.9219"/><text fill="#000000" font-family="sans-serif" font-size="12" lengthAdjust="spacingAndGlyphs" textLength="119" x="905.5" y="598.0918">mock-adxl345.dtbo</text><!--MD5=[73a95f137a2bbb86af6306458edfe195]
entity BinaryFile--><rect fill="#DAE8FC" filter="url(#fy0u7yxyowlww)" height="47.9375" style="stroke: #333333; stroke-width: 1.5;" width="152" x="311" y="569.9531"/><rect fill="#DAE8FC" height="5" style="stroke: #333333; stroke-width: 1.5;" width="10" x="306" y="574.9531"/><rect fill="#DAE8FC" height="5" style="stroke: #333333; stroke-width: 1.5;" width="10" x="306" y="607.8906"/><text fill="#000000" font-family="sans-serif" font-size="12" lengthAdjust="spacingAndGlyphs" textLength="132" x="321" y="591.0918">mock-adxl345-reader</text><text fill="#000000" font-family="sans-serif" font-size="12" lengthAdjust="spacingAndGlyphs" textLength="94" x="321" y="605.0605">(ARM64 binary)</text><!--MD5=[d8fd40b113252b891a9264baffbff3d8]
entity ServiceFile--><rect fill="#FFFFFF" filter="url(#fy0u7yxyowlww)" height="33.9688" style="stroke: #333333; stroke-width: 1.5;" width="200" x="498" y="576.9531"/><rect fill="#FFFFFF" height="5" style="stroke: #333333; stroke-width: 1.5;" width="10" x="493" y="581.9531"/><rect fill="#FFFFFF" height="5" style="stroke: #333333; stroke-width: 1.5;" width="10" x="493" y="600.9219"/><text fill="#000000" font-family="sans-serif" font-size="12" lengthAdjust="spacingAndGlyphs" textLength="180" x="508" y="598.0918">mock-adxl345-reader.service</text><!--MD5=[0765414ae0ef33f19ebe33ec437a279a]
entity WicFile--><rect fill="#FFFFFF" filter="url(#fy0u7yxyowlww)" height="47.9375" style="stroke: #333333; stroke-width: 1.5;" width="189" x="86.5" y="569.9531"/><rect fill="#FFFFFF" height="5" style="stroke: #333333; stroke-width: 1.5;" width="10" x="81.5" y="574.9531"/><rect fill="#FFFFFF" height="5" style="stroke: #333333; stroke-width: 1.5;" width="10" x="81.5" y="607.8906"/><text fill="#000000" font-family="sans-serif" font-size="12" lengthAdjust="spacingAndGlyphs" textLength="169" x="96.5" y="591.0918">yuhesen-ugv-image.wic.bz2</text><text fill="#000000" font-family="sans-serif" font-size="12" lengthAdjust="spacingAndGlyphs" textLength="129" x="96.5" y="605.0605">(Bootable SD image)</text><!--MD5=[813333473c0048be76e4b7db13246b1d]
entity UBoot--><rect fill="#FFFFFF" filter="url(#fy0u7yxyowlww)" height="47.9375" style="stroke: #333333; stroke-width: 1.5;" width="89" x="3084.5" y="203.9531"/><rect fill="#FFFFFF" height="5" style="stroke: #333333; stroke-width: 1.5;" width="10" x="3079.5" y="208.9531"/><rect fill="#FFFFFF" height="5" style="stroke: #333333; stroke-width: 1.5;" width="10" x="3079.5" y="241.8906"/><text fill="#000000" font-family="sans-serif" font-size="12" lengthAdjust="spacingAndGlyphs" textLength="42" x="3094.5" y="225.0918">U-Boot</text><text fill="#000000" font-family="sans-serif" font-size="12" lengthAdjust="spacingAndGlyphs" textLength="69" x="3094.5" y="239.0605">Bootloader</text><!--MD5=[cb798c5dd5bb639090b009f755d03b00]
entity Kernel--><rect fill="#FFFFFF" filter="url(#fy0u7yxyowlww)" height="47.9375" style="stroke: #333333; stroke-width: 1.5;" width="94" x="3085" y="383.9531"/><rect fill="#FFFFFF" height="5" style="stroke: #333333; stroke-width: 1.5;" width="10" x="3080" y="388.9531"/><rect fill="#FFFFFF" height="5" style="stroke: #333333; stroke-width: 1.5;" width="10" x="3080" y="421.8906"/><text fill="#000000" font-family="sans-serif" font-size="12" lengthAdjust="spacingAndGlyphs" textLength="74" x="3095" y="405.0918">Linux Kernel</text><text fill="#000000" font-family="sans-serif" font-size="12" lengthAdjust="spacingAndGlyphs" textLength="62" x="3095" y="419.0605">5.15 (imx)</text><!--MD5=[c012551f20bbf85ecdf1588f999fb3a2]
entity PlatformBus--><rect fill="#FFFFFF" filter="url(#fy0u7yxyowlww)" height="47.9375" style="stroke: #333333; stroke-width: 1.5;" width="127" x="2481.5" y="751.9531"/><rect fill="#FFFFFF" height="5" style="stroke: #333333; stroke-width: 1.5;" width="10" x="2476.5" y="756.9531"/><rect fill="#FFFFFF" height="5" style="stroke: #333333; stroke-width: 1.5;" width="10" x="2476.5" y="789.8906"/><text fill="#000000" font-family="sans-serif" font-size="12" lengthAdjust="spacingAndGlyphs" textLength="79" x="2491.5" y="773.0918">Platform Bus</text><text fill="#000000" font-family="sans-serif" font-size="12" lengthAdjust="spacingAndGlyphs" textLength="107" x="2491.5" y="787.0605">(driver matching)</text><!--MD5=[81e1a67b8fa384c140f34eddf1aa1405]
entity MockDriver--><rect fill="#F8CECC" filter="url(#fy0u7yxyowlww)" height="47.9375" style="stroke: #333333; stroke-width: 1.5;" width="127" x="2343.5" y="569.9531"/><rect fill="#F8CECC" height="5" style="stroke: #333333; stroke-width: 1.5;" width="10" x="2338.5" y="574.9531"/><rect fill="#F8CECC" height="5" style="stroke: #333333; stroke-width: 1.5;" width="10" x="2338.5" y="607.8906"/><text fill="#000000" font-family="sans-serif" font-size="12" lengthAdjust="spacingAndGlyphs" textLength="107" x="2353.5" y="591.0918">mock_adxl345.ko</text><text fill="#000000" font-family="sans-serif" font-size="12" lengthAdjust="spacingAndGlyphs" textLength="92" x="2353.5" y="605.0605">Platform Driver</text><!--MD5=[cc41f22645a606e8de8396c84ba34925]
entity IIOSub--><rect fill="#FFFFFF" filter="url(#fy0u7yxyowlww)" height="47.9375" style="stroke: #333333; stroke-width: 1.5;" width="108" x="2346" y="383.9531"/><rect fill="#FFFFFF" height="5" style="stroke: #333333; stroke-width: 1.5;" width="10" x="2341" y="388.9531"/><rect fill="#FFFFFF" height="5" style="stroke: #333333; stroke-width: 1.5;" width="10" x="2341" y="421.8906"/><text fill="#000000" font-family="sans-serif" font-size="12" lengthAdjust="spacingAndGlyphs" textLength="87" x="2356" y="405.0918">IIO Subsystem</text><text fill="#000000" font-family="sans-serif" font-size="12" lengthAdjust="spacingAndGlyphs" textLength="88" x="2356" y="419.0605">(Industrial I/O)</text><!--MD5=[cf5e80085b47cdcc88e6c0ee68b468e1]
entity DtOverlay--><rect fill="#F8CECC" filter="url(#fy0u7yxyowlww)" height="47.9375" style="stroke: #333333; stroke-width: 1.5;" width="142" x="2768" y="569.9531"/><rect fill="#F8CECC" height="5" style="stroke: #333333; stroke-width: 1.5;" width="10" x="2763" y="574.9531"/><rect fill="#F8CECC" height="5" style="stroke: #333333; stroke-width: 1.5;" width="10" x="2763" y="607.8906"/><text fill="#000000" font-family="sans-serif" font-size="12" lengthAdjust="spacingAndGlyphs" textLength="119" x="2778" y="591.0918">mock-adxl345.dtbo</text><text fill="#000000" font-family="sans-serif" font-size="12" lengthAdjust="spacingAndGlyphs" textLength="122" x="2778" y="605.0605">Device Tree Overlay</text><!--MD5=[8312c5f601140971a74be4d025f8ac8b]
entity SysfsFiles--><rect fill="#FFFFFF" filter="url(#fy0u7yxyowlww)" height="75.875" style="stroke: #333333; stroke-width: 1.5;" width="110" x="2177" y="555.9531"/><rect fill="#FFFFFF" height="5" style="stroke: #333333; stroke-width: 1.5;" width="10" x="2172" y="560.9531"/><rect fill="#FFFFFF" height="5" style="stroke: #333333; stroke-width: 1.5;" width="10" x="2172" y="621.8281"/><text fill="#000000" font-family="sans-serif" font-size="12" lengthAdjust="spacingAndGlyphs" textLength="90" x="2187" y="577.0918">in_accel_x_raw</text><text fill="#000000" font-family="sans-serif" font-size="12" lengthAdjust="spacingAndGlyphs" textLength="90" x="2187" y="591.0605">in_accel_y_raw</text><text fill="#000000" font-family="sans-serif" font-size="12" lengthAdjust="spacingAndGlyphs" textLength="89" x="2187" y="605.0293">in_accel_z_raw</text><text fill="#000000" font-family="sans-serif" font-size="12" lengthAdjust="spacingAndGlyphs" textLength="89" x="2187" y="618.998">in_accel_scale</text><!--MD5=[1bbf2b016c5068e77d803223add63924]
entity Systemd--><rect fill="#FFFFFF" filter="url(#fy0u7yxyowlww)" height="47.9375" style="stroke: #333333; stroke-width: 1.5;" width="72" x="1948" y="569.9531"/><rect fill="#FFFFFF" height="5" style="stroke: #333333; stroke-width: 1.5;" width="10" x="1943" y="574.9531"/><rect fill="#FFFFFF" height="5" style="stroke: #333333; stroke-width: 1.5;" width="10" x="1943" y="607.8906"/><text fill="#000000" font-family="sans-serif" font-size="12" lengthAdjust="spacingAndGlyphs" textLength="52" x="1958" y="591.0918">systemd</text><text fill="#000000" font-family="sans-serif" font-size="12" lengthAdjust="spacingAndGlyphs" textLength="42" x="1958" y="605.0605">(PID 1)</text><!--MD5=[7a89b6322af4690d500bf0b8b4f7a74b]
entity ReaderApp--><rect fill="#DAE8FC" filter="url(#fy0u7yxyowlww)" height="47.9375" style="stroke: #333333; stroke-width: 1.5;" width="152" x="1958" y="751.9531"/><rect fill="#DAE8FC" height="5" style="stroke: #333333; stroke-width: 1.5;" width="10" x="1953" y="756.9531"/><rect fill="#DAE8FC" height="5" style="stroke: #333333; stroke-width: 1.5;" width="10" x="1953" y="789.8906"/><text fill="#000000" font-family="sans-serif" font-size="12" lengthAdjust="spacingAndGlyphs" textLength="132" x="1968" y="773.0918">mock-adxl345-reader</text><text fill="#000000" font-family="sans-serif" font-size="12" lengthAdjust="spacingAndGlyphs" textLength="106" x="1968" y="787.0605">(IIO sysfs reader)</text><path d="M1579,169.9531 L1579,285.8828 L1865,285.8828 L1865,179.9531 L1855,169.9531 L1579,169.9531 " fill="#FBFB77" filter="url(#fy0u7yxyowlww)" style="stroke: #A80036; stroke-width: 1.0;"/><path d="M1855,169.9531 L1855,179.9531 L1865,179.9531 L1855,169.9531 " fill="#FBFB77" style="stroke: #A80036; stroke-width: 1.0;"/><text fill="#000000" font-family="sans-serif" font-size="13" font-weight="bold" lengthAdjust="spacingAndGlyphs" textLength="204" x="1585" y="187.02">Key Insight for Newcomers:</text><text fill="#000000" font-family="sans-serif" font-size="13" lengthAdjust="spacingAndGlyphs" textLength="247" x="1585" y="202.1528">The Yocto build system cross-compiles</text><text fill="#000000" font-family="sans-serif" font-size="13" lengthAdjust="spacingAndGlyphs" textLength="208" x="1585" y="217.2856">everything for the ARM64 target.</text><text fill="#000000" font-family="sans-serif" font-size="13" lengthAdjust="spacingAndGlyphs" textLength="265" x="1585" y="232.4185">Recipes declare dependencies (DEPENDS</text><text fill="#000000" font-family="sans-serif" font-size="13" lengthAdjust="spacingAndGlyphs" textLength="248" x="1585" y="247.5513">for build-time, RDEPENDS for runtime).</text><text fill="#000000" font-family="sans-serif" font-size="13" lengthAdjust="spacingAndGlyphs" textLength="225" x="1585" y="262.6841">The final WIC image is written to SD</text><text fill="#000000" font-family="sans-serif" font-size="13" lengthAdjust="spacingAndGlyphs" textLength="195" x="1585" y="277.8169">card and booted on the board.</text><path d="M3282.5,177.4531 L3282.5,278.25 L3571.5,278.25 L3571.5,187.4531 L3561.5,177.4531 L3282.5,177.4531 " fill="#FBFB77" filter="url(#fy0u7yxyowlww)" style="stroke: #A80036; stroke-width: 1.0;"/><path d="M3561.5,177.4531 L3561.5,187.4531 L3571.5,187.4531 L3561.5,177.4531 " fill="#FBFB77" style="stroke: #A80036; stroke-width: 1.0;"/><text fill="#000000" font-family="sans-serif" font-size="13" font-weight="bold" lengthAdjust="spacingAndGlyphs" textLength="204" x="3288.5" y="194.52">Key Insight for Newcomers:</text><text fill="#000000" font-family="sans-serif" font-size="13" lengthAdjust="spacingAndGlyphs" textLength="261" x="3288.5" y="209.6528">The DT overlay creates a platform device</text><text fill="#000000" font-family="sans-serif" font-size="13" lengthAdjust="spacingAndGlyphs" textLength="268" x="3288.5" y="224.7856">that matches the driver's of_match_table.</text><text fill="#000000" font-family="sans-serif" font-size="13" lengthAdjust="spacingAndGlyphs" textLength="242" x="3288.5" y="239.9185">The probe() function registers with IIO.</text><text fill="#000000" font-family="sans-serif" font-size="13" lengthAdjust="spacingAndGlyphs" textLength="259" x="3288.5" y="255.0513">The user-space app reads raw values via</text><text fill="#000000" font-family="sans-serif" font-size="13" lengthAdjust="spacingAndGlyphs" textLength="205" x="3288.5" y="270.1841">sysfs and scales them to milli-g.</text><!--MD5=[6561792f20117b6972dc7769168b82b0]
link KmRecipe to KoFile--><path d="M787.39,432.2531 C789.54,468.2431 793.64,536.7931 795.72,571.5731 " fill="none" id="KmRecipe-&gt;KoFile" style="stroke: #555555; stroke-width: 1.0;"/><polygon fill="#555555" points="796.04,576.8531,799.4938,567.6297,795.7405,571.8621,791.5082,568.1089,796.04,576.8531" style="stroke: #555555; stroke-width: 1.0;"/><text fill="#000000" font-family="sans-serif" font-size="13" lengthAdjust="spacingAndGlyphs" textLength="59" x="792" y="501.02">produces</text><!--MD5=[26165f2d17c482fbfcf5ff3bc61f5faa]
link KmRecipe to DtboFile--><path d="M808.67,432.2531 C844.25,468.8331 912.57,539.0631 945.85,573.2631 " fill="none" id="KmRecipe-&gt;DtboFile" style="stroke: #555555; stroke-width: 1.0;"/><polygon fill="#555555" points="949.34,576.8531,945.9348,567.6117,945.8548,573.268,940.1985,573.188,949.34,576.8531" style="stroke: #555555; stroke-width: 1.0;"/><text fill="#000000" font-family="sans-serif" font-size="13" lengthAdjust="spacingAndGlyphs" textLength="93" x="876" y="501.02">produces (dtc)</text><!--MD5=[8075c8098450ead4da0b6bdb617ac7ad]
link AppRecipe to BinaryFile--><path d="M750.81,251.9531 C733.15,263.1831 710.97,276.3131 690,285.9531 C619.77,318.2531 584.33,291.4031 525,340.9531 C451.56,402.2831 410.7,513.1831 394.83,564.9331 " fill="none" id="AppRecipe-&gt;BinaryFile" style="stroke: #555555; stroke-width: 1.0;"/><polygon fill="#555555" points="393.37,569.7531,399.7977,562.2909,394.8133,564.966,392.1382,559.9816,393.37,569.7531" style="stroke: #555555; stroke-width: 1.0;"/><text fill="#000000" font-family="sans-serif" font-size="13" lengthAdjust="spacingAndGlyphs" textLength="59" x="526" y="412.52">produces</text><!--MD5=[b03706e41fbb337c3ff8b496bb2a9746]
link AppRecipe to ServiceFile--><path d="M746.74,252.0431 C706.15,277.3531 645.97,317.4731 632,340.9531 C587.24,416.2131 591.43,526.1331 595.59,571.8231 " fill="none" id="AppRecipe-&gt;ServiceFile" style="stroke: #555555; stroke-width: 1.0;"/><polygon fill="#555555" points="596.06,576.8131,599.1925,567.4757,595.588,571.8355,591.2282,568.2309,596.06,576.8131" style="stroke: #555555; stroke-width: 1.0;"/><text fill="#000000" font-family="sans-serif" font-size="13" lengthAdjust="spacingAndGlyphs" textLength="59" x="633" y="412.52">produces</text><!--MD5=[4a70c75a3d0f747e660e7c50d6d14939]
link ImgRecipe to WicFile--><path d="M561.61,252.2331 C546.12,263.3931 526.66,276.3831 508,285.9531 C444.82,318.3531 414.31,297.7031 358,340.9531 C276.67,403.4231 217.85,513.7531 193.46,565.1531 " fill="none" id="ImgRecipe-&gt;WicFile" style="stroke: #555555; stroke-width: 1.0;"/><polygon fill="#555555" points="191.21,569.9331,198.6664,563.4986,193.3424,565.4107,191.4304,560.0867,191.21,569.9331" style="stroke: #555555; stroke-width: 1.0;"/><text fill="#000000" font-family="sans-serif" font-size="13" lengthAdjust="spacingAndGlyphs" textLength="59" x="359" y="412.52">produces</text><!--MD5=[ce6bb82e19a45cbcc35a32d58de0ad28]
reverse link BitBake to KmRecipe--><path d="M974.28,256.0131 C955.82,278.1031 927.94,309.3931 900,332.9531 C877.27,352.1231 849.3,370.3431 826.75,383.9131 " fill="none" id="BitBake&lt;-KmRecipe" style="stroke: #555555; stroke-width: 1.0;"/><polygon fill="#555555" points="977.61,252.0031,968.7867,256.379,974.4189,255.8524,974.9455,261.4847,977.61,252.0031" style="stroke: #555555; stroke-width: 1.0;"/><text fill="#000000" font-family="sans-serif" font-size="13" lengthAdjust="spacingAndGlyphs" textLength="134" x="918" y="329.02">uses module.bbclass</text><!--MD5=[a57ae31ed3e9fce227d258e6525abf18]
reverse link Poky to KmRecipe--><path d="M1135.68,256.2731 C1119.25,279.9731 1092.44,313.4731 1061,332.9531 C1000.16,370.6431 920.21,389.3731 862.2,398.5331 " fill="none" id="Poky&lt;-KmRecipe" style="stroke: #555555; stroke-width: 1.0;"/><polygon fill="#555555" points="1138.62,251.9631,1130.2456,257.1467,1135.8038,256.0946,1136.8559,261.6527,1138.62,251.9631" style="stroke: #555555; stroke-width: 1.0;"/><text fill="#000000" font-family="sans-serif" font-size="13" lengthAdjust="spacingAndGlyphs" textLength="149" x="1083" y="329.02">DEPENDS virtual/kernel</text><!--MD5=[a4aa8f4cd3e0dc512360b70c06693c63]
link KmRecipe to MF--><path d="M862.02,416.2631 C1000.67,430.5931 1288.4,465.1631 1376,512.9531 C1401.88,527.0731 1423.66,553.6331 1436.76,572.2631 " fill="none" id="KmRecipe-&gt;MF" style="stroke: #555555; stroke-width: 1.0; stroke-dasharray: 7.0,7.0;"/><polygon fill="#555555" points="1439.89,576.8231,1438.0874,567.1406,1437.0574,572.7029,1431.4951,571.6729,1439.89,576.8231" style="stroke: #555555; stroke-width: 1.0;"/><text fill="#000000" font-family="sans-serif" font-size="13" lengthAdjust="spacingAndGlyphs" textLength="73" x="1352" y="501.02">DT includes</text><!--MD5=[1e5868d80c16a5c1fbf8c6b57b853374]
reverse link BitBake to AppRecipe--><path d="M936.71,227.9531 C913.56,227.9531 886.7,227.9531 862.07,227.9531 " fill="none" id="BitBake&lt;-AppRecipe" style="stroke: #555555; stroke-width: 1.0;"/><polygon fill="#555555" points="941.9,227.9531,932.9,223.9531,936.9,227.9531,932.9,231.9531,941.9,227.9531" style="stroke: #555555; stroke-width: 1.0;"/><text fill="#000000" font-family="sans-serif" font-size="13" lengthAdjust="spacingAndGlyphs" textLength="30" x="887" y="221.02">uses</text><!--MD5=[245c27f8397884697a19f28824155b6a]
link AppRecipe to KmRecipe--><path d="M773.35,252.2931 C764.3,273.2431 754.04,304.9131 759,332.9531 C761.78,348.6631 767.63,365.4231 773.18,379.0131 " fill="none" id="AppRecipe-&gt;KmRecipe" style="stroke: #555555; stroke-width: 1.0; stroke-dasharray: 7.0,7.0;"/><polygon fill="#555555" points="775.2,383.8731,775.42,374.0267,773.2719,379.2599,768.0387,377.1118,775.2,383.8731" style="stroke: #555555; stroke-width: 1.0;"/><text fill="#000000" font-family="sans-serif" font-size="13" lengthAdjust="spacingAndGlyphs" textLength="135" x="760" y="329.02">RDEPENDS (runtime)</text><!--MD5=[3502025fa0cdefb77c7012646254ff40]
link UBoot to Kernel--><path d="M3129.39,252.2231 C3129.94,284.6031 3130.93,343.2131 3131.52,378.2631 " fill="none" id="UBoot-&gt;Kernel" style="stroke: #555555; stroke-width: 1.0;"/><polygon fill="#555555" points="3131.61,383.6731,3135.481,374.6169,3131.5386,378.6736,3127.4818,374.7312,3131.61,383.6731" style="stroke: #555555; stroke-width: 1.0;"/><text fill="#000000" font-family="sans-serif" font-size="13" lengthAdjust="spacingAndGlyphs" textLength="89" x="3131" y="329.02">loads + boots</text><!--MD5=[e1f37aa388d5692fcc07dccb0be17f71]
link Kernel to DtOverlay--><path d="M3106.32,432.0131 C3089.48,446.5831 3066.66,465.3531 3045,479.9531 C2994.9,513.7231 2933.83,546.2331 2891.24,567.6531 " fill="none" id="Kernel-&gt;DtOverlay" style="stroke: #555555; stroke-width: 1.0;"/><polygon fill="#555555" points="2886.66,569.9431,2896.4981,569.4833,2891.1293,567.7013,2892.9113,562.3325,2886.66,569.9431" style="stroke: #555555; stroke-width: 1.0;"/><text fill="#000000" font-family="sans-serif" font-size="13" lengthAdjust="spacingAndGlyphs" textLength="95" x="3030" y="501.02">applies overlay</text><!--MD5=[19c4d05bc155cfb12270d58edbf05516]
link DtOverlay to PlatformBus--><path d="M2816.17,618.3731 C2787.98,646.2031 2737.54,692.5731 2687,721.9531 C2664.18,735.2231 2637.44,746.2231 2613.36,754.7131 " fill="none" id="DtOverlay-&gt;PlatformBus" style="stroke: #555555; stroke-width: 1.0;"/><polygon fill="#555555" points="2608.58,756.3731,2618.3943,757.1979,2613.3031,754.7322,2615.7688,749.641,2608.58,756.3731" style="stroke: #555555; stroke-width: 1.0;"/><text fill="#000000" font-family="sans-serif" font-size="13" lengthAdjust="spacingAndGlyphs" textLength="154" x="2799" y="703.02">creates platform_device</text><text fill="#000000" font-family="sans-serif" font-size="13" lengthAdjust="spacingAndGlyphs" textLength="286" x="2733" y="718.1528">compatible = \"yuhesen_ugv,mock-adxl345\"</text><!--MD5=[05ff43d3a7a366ef33f48c7b5883d2c6]
reverse link PlatformBus to MockDriver--><path d="M2476.12,772.1431 C2439.82,766.7231 2398.14,753.4031 2375,721.9531 C2352.23,691.0031 2373.47,645.5631 2390.53,618.2631 " fill="none" id="PlatformBus&lt;-MockDriver" style="stroke: #555555; stroke-width: 1.0;"/><polygon fill="#555555" points="2481.43,772.8831,2473.0798,767.6607,2476.4794,772.182,2471.958,775.5816,2481.43,772.8831" style="stroke: #555555; stroke-width: 1.0;"/><text fill="#000000" font-family="sans-serif" font-size="13" lengthAdjust="spacingAndGlyphs" textLength="125" x="2376" y="703.02">registers driver with</text><text fill="#000000" font-family="sans-serif" font-size="13" lengthAdjust="spacingAndGlyphs" textLength="99" x="2389" y="718.1528">of_match_table</text><!--MD5=[3df8d612ea2120b0525d45081fe2e690]
reverse link MockDriver to PlatformBus--><path d="M2440.83,621.7431 C2461.59,639.4531 2487.62,664.1131 2506,689.9531 C2519.64,709.1431 2530.34,733.8631 2537.06,751.6931 " fill="none" id="MockDriver&lt;-PlatformBus" style="stroke: #555555; stroke-width: 1.0;"/><polygon fill="#555555" points="2436.75,618.2931,2441.0352,627.1609,2440.5664,621.5235,2446.2038,621.0546,2436.75,618.2931" style="stroke: #555555; stroke-width: 1.0;"/><text fill="#000000" font-family="sans-serif" font-size="13" lengthAdjust="spacingAndGlyphs" textLength="154" x="2524" y="710.52">matches + calls probe()</text><!--MD5=[d016ab999b2dad7ffc5f2e1231cd0ade]
reverse link IIOSub to MockDriver--><path d="M2401.08,437.4331 C2402.47,473.8531 2404.84,536.2131 2406.12,569.8431 " fill="none" id="IIOSub&lt;-MockDriver" style="stroke: #555555; stroke-width: 1.0;"/><polygon fill="#555555" points="2400.89,432.2531,2397.2529,441.4058,2401.0898,437.2491,2405.2465,441.0861,2400.89,432.2531" style="stroke: #555555; stroke-width: 1.0;"/><text fill="#000000" font-family="sans-serif" font-size="13" lengthAdjust="spacingAndGlyphs" textLength="171" x="2404" y="501.02">devm_iio_device_register()</text><!--MD5=[508040fa9055d66762e312c2a10dd2de]
link IIOSub to SysfsFiles--><path d="M2353.89,432.0231 C2330.07,445.7231 2301.91,464.9131 2282,487.9531 C2266.23,506.1931 2254.3,530.2731 2246.05,550.7631 " fill="none" id="IIOSub-&gt;SysfsFiles" style="stroke: #555555; stroke-width: 1.0;"/><polygon fill="#555555" points="2244.13,555.6231,2251.1609,548.7263,2245.9697,550.9739,2243.7221,545.7827,2244.13,555.6231" style="stroke: #555555; stroke-width: 1.0;"/><text fill="#000000" font-family="sans-serif" font-size="13" lengthAdjust="spacingAndGlyphs" textLength="111" x="2283" y="501.02">exposes via sysfs</text><!--MD5=[9fc242db98c7e7372dc0c9b41f1a6b88]
link SysfsFiles to ReaderApp--><path d="M2205.75,632.0531 C2185.46,659.0631 2155.57,695.4131 2124,721.9531 C2112.03,732.0231 2097.91,741.3131 2084.45,749.2231 " fill="none" id="SysfsFiles-&gt;ReaderApp" style="stroke: #555555; stroke-width: 1.0;"/><polygon fill="#555555" points="2079.91,751.8531,2089.7041,750.8157,2084.2397,749.3525,2085.703,743.8881,2079.91,751.8531" style="stroke: #555555; stroke-width: 1.0;"/><text fill="#000000" font-family="sans-serif" font-size="13" lengthAdjust="spacingAndGlyphs" textLength="144" x="2158" y="710.52">reads every 2 seconds</text><!--MD5=[db9047c60027c49c60e5b6477a3d4f99]
link Systemd to ReaderApp--><path d="M1978.39,617.9731 C1973.17,644.2031 1968.07,687.8631 1982,721.9531 C1985.98,731.6931 1992.71,740.6131 2000.03,748.2431 " fill="none" id="Systemd-&gt;ReaderApp" style="stroke: #555555; stroke-width: 1.0;"/><polygon fill="#555555" points="2003.66,751.8831,2000.1245,742.6907,2000.1245,748.3476,1994.4676,748.3476,2003.66,751.8831" style="stroke: #555555; stroke-width: 1.0;"/><text fill="#000000" font-family="sans-serif" font-size="13" lengthAdjust="spacingAndGlyphs" textLength="109" x="1996.5" y="703.02">manages service</text><text fill="#000000" font-family="sans-serif" font-size="13" lengthAdjust="spacingAndGlyphs" textLength="136" x="1983" y="718.1528">(auto-start + restart)</text><!--MD5=[894223cfb8b1203c9d1b92c7e95a1dbf]
link BuildTime to GMN63--><path d="M300.6536,74.5223 C301.2962,74.2576 301.9391,73.9937 302.5824,73.7306 C303.8689,73.2045 305.1567,72.6817 306.4459,72.1623 C309.0242,71.1235 311.6075,70.0983 314.1954,69.0877 C319.3711,67.0664 324.5645,65.103 329.7705,63.2043 C350.5942,55.6095 371.6175,49.0494 392.5,43.9531 C481.77,22.1631 1129.02,27.9131 1219.5,43.9531 C1354.66,67.9231 1501.19,125.5131 1600.94,169.9331 " fill="none" id="BuildTime-GMN63" style="stroke: #555555; stroke-width: 1.0; stroke-dasharray: 7.0,7.0;"/><!--MD5=[7fbc343d28f4e70742f76077270a12f1]
link RunTime to GMN66--><path d="M2492.296,117.7806 C2494.2871,117.4621 2496.2805,117.1438 2498.2764,116.8257 C2502.268,116.1895 2506.269,115.554 2510.279,114.9195 C2518.2991,113.6505 2526.3552,112.3851 2534.4445,111.1242 C2550.6232,108.6024 2566.9348,106.0987 2583.3568,103.6201 C2616.2006,98.6631 2649.4858,93.8068 2683.0314,89.1083 C2817.2138,70.3144 2955.5625,54.0456 3086.5,43.9531 C3141,39.7531 3158.17,25.1531 3209.5,43.9531 C3281.72,70.4031 3346.45,132.6131 3386.15,177.3731 " fill="none" id="RunTime-GMN66" style="stroke: #555555; stroke-width: 1.0; stroke-dasharray: 7.0,7.0;"/><!--MD5=[a9db97015ca7236ba96c04e3095a70c4]
@startuml


skinparam component {
  BackgroundColor #FFFFFF
  BorderColor #333333
  FontSize 12
}

skinparam package {
  BackgroundColor #F5F5F5
  BorderColor #666666
  FontSize 14
  FontStyle bold
}

skinparam arrow {
  Color #555555
}

title Yuhesen UGV — Yocto Project Architecture Overview

package "Development Host (Build-Time)" as BuildTime #A9DCDF {

  rectangle "Yocto Build Environment" as Yocto {
    component "BitBake\nTask Executor" as BitBake
    component "Poky\n(Reference Distro)" as Poky
  }

  rectangle "Upstream Layers (kirkstone)" as Upstream {
    component "meta-freescale" as MF
    component "meta-imx" as MIMX
    component "meta-openembedded" as MOE
  }

  rectangle "Custom Layer: meta-yuhesen_ugv" as CustomLayer {
    component "layer.conf\n(priority 5)" as LayerConf

    package "Recipes" as Recipes {
      component "mock-adxl345_1.0.bb\n(Kernel Module)" as KmRecipe #D5E8D4
      component "mock-adxl345-app.bb\n(User-Space App)" as AppRecipe #D5E8D4
      component "yuhesen-ugv-image.bb\n(Final Image)" as ImgRecipe #D5E8D4
    }
  }

  rectangle "Build Artifacts" as Artifacts {
    component "mock_adxl345.ko" as KoFile #F8CECC
    component "mock-adxl345.dtbo" as DtboFile #F8CECC
    component "mock-adxl345-reader\n(ARM64 binary)" as BinaryFile #DAE8FC
    component "mock-adxl345-reader.service" as ServiceFile
    component "yuhesen-ugv-image.wic.bz2\n(Bootable SD image)" as WicFile
  }
}

KmRecipe - -> KoFile         : "produces"
KmRecipe - -> DtboFile       : "produces (dtc)"
AppRecipe - -> BinaryFile    : "produces"
AppRecipe - -> ServiceFile   : "produces"
ImgRecipe - -> WicFile       : "produces"

KmRecipe -left-> BitBake        : "uses module.bbclass"
KmRecipe -left-> Poky           : "DEPENDS virtual/kernel"
KmRecipe ..> MF                 : "DT includes"
AppRecipe -left-> BitBake       : "uses"
AppRecipe ..> KmRecipe          : "RDEPENDS (runtime)"

package "Target Hardware — i.MX8M Mini EVK (Run-Time)" as RunTime #FEF0D9 {

  rectangle "Boot Chain" as BootChain {
    component "U-Boot\nBootloader" as UBoot
    component "Linux Kernel\n5.15 (imx)" as Kernel
  }

  rectangle "Kernel Space" as KernelSpace {
    component "Platform Bus\n(driver matching)" as PlatformBus
    component "mock_adxl345.ko\nPlatform Driver" as MockDriver #F8CECC
    component "IIO Subsystem\n(Industrial I/O)" as IIOSub
    component "mock-adxl345.dtbo\nDevice Tree Overlay" as DtOverlay #F8CECC
  }

  rectangle "Sysfs Interface" as Sysfs {
    component "in_accel_x_raw\nin_accel_y_raw\nin_accel_z_raw\nin_accel_scale" as SysfsFiles
  }

  rectangle "User Space" as UserSpace {
    component "systemd\n(PID 1)" as Systemd
    component "mock-adxl345-reader\n(IIO sysfs reader)" as ReaderApp #DAE8FC
  }
}

UBoot -down-> Kernel : "loads + boots"
Kernel -down-> DtOverlay : "applies overlay"
DtOverlay -down-> PlatformBus : "creates platform_device\ncompatible = \"yuhesen_ugv,mock-adxl345\""

MockDriver -up-> PlatformBus : "registers driver with\nof_match_table"
PlatformBus -up-> MockDriver : "matches + calls probe()"
MockDriver -up-> IIOSub : "devm_iio_device_register()"

IIOSub -down-> SysfsFiles : "exposes via sysfs"
SysfsFiles -down-> ReaderApp : "reads every 2 seconds"
Systemd -down-> ReaderApp : "manages service\n(auto-start + restart)"

note right of BuildTime
  **Key Insight for Newcomers:**
  The Yocto build system cross-compiles
  everything for the ARM64 target.
  Recipes declare dependencies (DEPENDS
  for build-time, RDEPENDS for runtime).
  The final WIC image is written to SD
  card and booted on the board.
end note

note right of RunTime
  **Key Insight for Newcomers:**
  The DT overlay creates a platform device
  that matches the driver's of_match_table.
  The probe() function registers with IIO.
  The user-space app reads raw values via
  sysfs and scales them to milli-g.
end note

@enduml

PlantUML version 1.2020.02(Sun Mar 01 11:22:07 CET 2020)
(GPL source distribution)
Java Runtime: OpenJDK Runtime Environment
JVM: OpenJDK 64-Bit Server VM
Java Version: 11.0.31+11-post-1ubuntu1-22.04.2-Ubuntu
Operating System: Linux
Default Encoding: UTF-8
Language: en
Country: null
--></g></svg>