<?xml version="1.0" encoding="UTF-8" standalone="no"?><svg xmlns="http://www.w3.org/2000/svg" xmlns:xlink="http://www.w3.org/1999/xlink" contentScriptType="application/ecmascript" contentStyleType="text/css" height="856px" preserveAspectRatio="none" style="width:2335px;height:856px;" version="1.1" viewBox="0 0 2335 856" width="2335px" zoomAndPan="magnify"><defs><filter height="300%" id="f1ph5u8db30wjv" width="300%" x="-1" y="-1"><feGaussianBlur result="blurOut" stdDeviation="2.0"/><feColorMatrix in="blurOut" result="blurOut2" type="matrix" values="0 0 0 0 0 0 0 0 0 0 0 0 0 0 0 0 0 0 .4 0"/><feOffset dx="4.0" dy="4.0" in="blurOut2" result="blurOut3"/><feBlend in="SourceGraphic" in2="blurOut3" mode="normal"/></filter></defs><g><text fill="#000000" font-family="sans-serif" font-size="18" lengthAdjust="spacingAndGlyphs" textLength="539" x="901.5" y="16.708">Yocto Recipe Dependency Graph — DEPENDS vs RDEPENDS</text><!--MD5=[cebc4953025eb699f5485e442f7506a9]
cluster Upstream--><polygon fill="#F5F5F5" filter="url(#f1ph5u8db30wjv)" points="424,590.4531,606,590.4531,613,624.3906,935,624.3906,935,844.9531,424,844.9531,424,590.4531" style="stroke: #999999; stroke-width: 1.5;"/><line style="stroke: #999999; stroke-width: 1.5;" x1="424" x2="613" y1="624.3906" y2="624.3906"/><text fill="#000000" font-family="sans-serif" font-size="12" font-weight="bold" lengthAdjust="spacingAndGlyphs" textLength="141" x="445.5" y="603.5918">Upstream Packages</text><text fill="#000000" font-family="sans-serif" font-size="12" font-weight="bold" lengthAdjust="spacingAndGlyphs" textLength="176" x="428" y="617.5605">(from poky / meta layers)</text><!--MD5=[db95e6a023bb9dbb0ccf14dcda6848fa]
cluster Custom--><polygon fill="#FFFFFF" filter="url(#f1ph5u8db30wjv)" points="154,249.9531,399,249.9531,406,269.9219,1466,269.9219,1466,399.9531,154,399.9531,154,249.9531" style="stroke: #999999; stroke-width: 1.5;"/><line style="stroke: #999999; stroke-width: 1.5;" x1="154" x2="406" y1="269.9219" y2="269.9219"/><text fill="#000000" font-family="sans-serif" font-size="12" font-weight="bold" lengthAdjust="spacingAndGlyphs" textLength="239" x="158" y="263.0918">Custom Layer: meta-yuhesen_ugv</text><!--MD5=[f7217341b3bb6bbf768c7f0e049f8d09]
cluster Legend--><rect fill="#FFFFFF" filter="url(#f1ph5u8db30wjv)" height="327.5" style="stroke: #999999; stroke-width: 1.5;" width="281" x="1683" y="53.4531"/><text fill="#000000" font-family="sans-serif" font-size="12" font-weight="bold" lengthAdjust="spacingAndGlyphs" textLength="53" x="1797" y="66.5918">Legend</text><!--MD5=[deaf7655b43fff1bc744225718660476]
entity PkgBoot--><rect fill="#FEFECE" filter="url(#f1ph5u8db30wjv)" height="33.9688" style="stroke: #333333; stroke-width: 1.5;" width="176" x="743" y="650.4531"/><rect fill="#FEFECE" height="5" style="stroke: #333333; stroke-width: 1.5;" width="10" x="738" y="655.4531"/><rect fill="#FEFECE" height="5" style="stroke: #333333; stroke-width: 1.5;" width="10" x="738" y="674.4219"/><text fill="#000000" font-family="sans-serif" font-size="12" lengthAdjust="spacingAndGlyphs" textLength="156" x="753" y="671.5918">packagegroup-core-boot</text><!--MD5=[6b66f0663e1e2d37b6f21f6209a5ae6e]
entity KernelMods--><rect fill="#FEFECE" filter="url(#f1ph5u8db30wjv)" height="33.9688" style="stroke: #333333; stroke-width: 1.5;" width="116" x="621" y="794.9531"/><rect fill="#FEFECE" height="5" style="stroke: #333333; stroke-width: 1.5;" width="10" x="616" y="799.9531"/><rect fill="#FEFECE" height="5" style="stroke: #333333; stroke-width: 1.5;" width="10" x="616" y="818.9219"/><text fill="#000000" font-family="sans-serif" font-size="12" lengthAdjust="spacingAndGlyphs" textLength="96" x="631" y="816.0918">kernel-modules</text><!--MD5=[4e2023c1e207b4c03e6d7386f6daf46f]
entity VirtKernel--><rect fill="#FEFECE" filter="url(#f1ph5u8db30wjv)" height="47.9375" style="stroke: #333333; stroke-width: 1.5;" width="101" x="440.5" y="643.4531"/><rect fill="#FEFECE" height="5" style="stroke: #333333; stroke-width: 1.5;" width="10" x="435.5" y="648.4531"/><rect fill="#FEFECE" height="5" style="stroke: #333333; stroke-width: 1.5;" width="10" x="435.5" y="681.3906"/><text fill="#000000" font-family="sans-serif" font-size="12" lengthAdjust="spacingAndGlyphs" textLength="81" x="450.5" y="664.5918">virtual/kernel</text><text fill="#000000" font-family="sans-serif" font-size="12" lengthAdjust="spacingAndGlyphs" textLength="73" x="450.5" y="678.5605">(Linux 5.15)</text><!--MD5=[7c6b2d0dfd340c18556f797cc49cfa06]
entity DtcNative--><rect fill="#FEFECE" filter="url(#f1ph5u8db30wjv)" height="61.9063" style="stroke: #333333; stroke-width: 1.5;" width="131" x="576.5" y="636.4531"/><rect fill="#FEFECE" height="5" style="stroke: #333333; stroke-width: 1.5;" width="10" x="571.5" y="641.4531"/><rect fill="#FEFECE" height="5" style="stroke: #333333; stroke-width: 1.5;" width="10" x="571.5" y="688.3594"/><text fill="#000000" font-family="sans-serif" font-size="12" lengthAdjust="spacingAndGlyphs" textLength="62" x="586.5" y="657.5918">dtc-native</text><text fill="#000000" font-family="sans-serif" font-size="12" lengthAdjust="spacingAndGlyphs" textLength="111" x="586.5" y="671.5605">(Host Device Tree</text><text fill="#000000" font-family="sans-serif" font-size="12" lengthAdjust="spacingAndGlyphs" textLength="59" x="586.5" y="685.5293">Compiler)</text><!--MD5=[20b4132f4c945376e993f75ec2d46ea0]
entity KmRecipe--><rect fill="#F8CECC" filter="url(#f1ph5u8db30wjv)" height="47.9375" style="stroke: #333333; stroke-width: 1.5;" width="152" x="197" y="308.9531"/><rect fill="#F8CECC" height="5" style="stroke: #333333; stroke-width: 1.5;" width="10" x="192" y="313.9531"/><rect fill="#F8CECC" height="5" style="stroke: #333333; stroke-width: 1.5;" width="10" x="192" y="346.8906"/><text fill="#000000" font-family="sans-serif" font-size="12" lengthAdjust="spacingAndGlyphs" textLength="86" x="207" y="330.0918">mock-adxl345</text><text fill="#000000" font-family="sans-serif" font-size="12" lengthAdjust="spacingAndGlyphs" textLength="132" x="207" y="344.0605">mock-adxl345_1.0.bb</text><path d="M1160,289.9531 L1160,375.6172 L1442,375.6172 L1442,299.9531 L1432,289.9531 L1160,289.9531 " fill="#FBFB77" filter="url(#f1ph5u8db30wjv)" style="stroke: #A80036; stroke-width: 1.0;"/><path d="M1432,289.9531 L1432,299.9531 L1442,299.9531 L1432,289.9531 " fill="#FBFB77" style="stroke: #A80036; stroke-width: 1.0;"/><text fill="#000000" font-family="sans-serif" font-size="13" font-weight="bold" lengthAdjust="spacingAndGlyphs" textLength="197" x="1166" y="307.02">Out-of-tree kernel module:</text><text fill="#000000" font-family="sans-serif" font-size="13" lengthAdjust="spacingAndGlyphs" textLength="120" x="1166" y="322.1528">- mock_adxl345.ko</text><text fill="#000000" font-family="sans-serif" font-size="13" lengthAdjust="spacingAndGlyphs" textLength="132" x="1166" y="337.2856">- mock-adxl345.dtbo</text><text fill="#000000" font-family="sans-serif" font-size="13" lengthAdjust="spacingAndGlyphs" textLength="212" x="1166" y="352.4185">Produces: mock-adxl345-1.0.rpm</text><text fill="#000000" font-family="sans-serif" font-size="13" lengthAdjust="spacingAndGlyphs" textLength="261" x="1166" y="367.5513">Auto-load: KERNEL_MODULE_AUTOLOAD</text><!--MD5=[e572556e1a0e942fb089ac0401969c0f]
entity AppRecipe--><rect fill="#DAE8FC" filter="url(#f1ph5u8db30wjv)" height="47.9375" style="stroke: #333333; stroke-width: 1.5;" width="154" x="680" y="308.9531"/><rect fill="#DAE8FC" height="5" style="stroke: #333333; stroke-width: 1.5;" width="10" x="675" y="313.9531"/><rect fill="#DAE8FC" height="5" style="stroke: #333333; stroke-width: 1.5;" width="10" x="675" y="346.8906"/><text fill="#000000" font-family="sans-serif" font-size="12" lengthAdjust="spacingAndGlyphs" textLength="114" x="690" y="330.0918">mock-adxl345-app</text><text fill="#000000" font-family="sans-serif" font-size="12" lengthAdjust="spacingAndGlyphs" textLength="134" x="690" y="344.0605">mock-adxl345-app.bb</text><path d="M869,289.9531 L869,328.9531 L834.34,332.9531 L869,336.9531 L869,375.6172 A0,0 0 0 0 869,375.6172 L1125,375.6172 A0,0 0 0 0 1125,375.6172 L1125,299.9531 L1115,289.9531 L869,289.9531 A0,0 0 0 0 869,289.9531 " fill="#FBFB77" filter="url(#f1ph5u8db30wjv)" style="stroke: #A80036; stroke-width: 1.0;"/><path d="M1115,289.9531 L1115,299.9531 L1125,299.9531 L1115,289.9531 " fill="#FBFB77" style="stroke: #A80036; stroke-width: 1.0;"/><text fill="#000000" font-family="sans-serif" font-size="13" font-weight="bold" lengthAdjust="spacingAndGlyphs" textLength="174" x="875" y="307.02">User-space application:</text><text fill="#000000" font-family="sans-serif" font-size="13" lengthAdjust="spacingAndGlyphs" textLength="189" x="875" y="322.1528">- mock-adxl345-reader binary</text><text fill="#000000" font-family="sans-serif" font-size="13" lengthAdjust="spacingAndGlyphs" textLength="195" x="875" y="337.2856">- mock-adxl345-reader.service</text><text fill="#000000" font-family="sans-serif" font-size="13" lengthAdjust="spacingAndGlyphs" textLength="216" x="875" y="352.4185">Produces: mock-adxl345-app.rpm</text><text fill="#000000" font-family="sans-serif" font-size="13" lengthAdjust="spacingAndGlyphs" textLength="235" x="875" y="367.5513">Auto-start: SYSTEMD_AUTO_ENABLE</text><!--MD5=[1e660f28140b725c65eba3862a6dce94]
entity DependsLegend--><rect fill="#FEFECE" filter="url(#f1ph5u8db30wjv)" height="47.9375" style="stroke: #333333; stroke-width: 1.5;" width="91" x="1707.5" y="93.4531"/><rect fill="#FEFECE" height="5" style="stroke: #333333; stroke-width: 1.5;" width="10" x="1702.5" y="98.4531"/><rect fill="#FEFECE" height="5" style="stroke: #333333; stroke-width: 1.5;" width="10" x="1702.5" y="131.3906"/><text fill="#000000" font-family="sans-serif" font-size="12" lengthAdjust="spacingAndGlyphs" textLength="59" x="1717.5" y="114.5918">DEPENDS</text><text fill="#000000" font-family="sans-serif" font-size="12" lengthAdjust="spacingAndGlyphs" textLength="71" x="1717.5" y="128.5605">(Build-time)</text><!--MD5=[a7e44a110e71212157e5bd049d486d01]
entity RdependsLegend--><rect fill="#FEFECE" filter="url(#f1ph5u8db30wjv)" height="47.9375" style="stroke: #333333; stroke-width: 1.5;" width="87" x="1833.5" y="93.4531"/><rect fill="#FEFECE" height="5" style="stroke: #333333; stroke-width: 1.5;" width="10" x="1828.5" y="98.4531"/><rect fill="#FEFECE" height="5" style="stroke: #333333; stroke-width: 1.5;" width="10" x="1828.5" y="131.3906"/><text fill="#000000" font-family="sans-serif" font-size="12" lengthAdjust="spacingAndGlyphs" textLength="67" x="1843.5" y="114.5918">RDEPENDS</text><text fill="#000000" font-family="sans-serif" font-size="12" lengthAdjust="spacingAndGlyphs" textLength="61" x="1843.5" y="128.5605">(Runtime)</text><!--MD5=[4c6df314cbc4c5be427c47d61fc6d058]
entity InstallsLegend--><rect fill="#FEFECE" filter="url(#f1ph5u8db30wjv)" height="47.9375" style="stroke: #333333; stroke-width: 1.5;" width="124" x="1707" y="308.9531"/><rect fill="#FEFECE" height="5" style="stroke: #333333; stroke-width: 1.5;" width="10" x="1702" y="313.9531"/><rect fill="#FEFECE" height="5" style="stroke: #333333; stroke-width: 1.5;" width="10" x="1702" y="346.8906"/><text fill="#000000" font-family="sans-serif" font-size="12" lengthAdjust="spacingAndGlyphs" textLength="55" x="1717" y="330.0918">INSTALLS</text><text fill="#000000" font-family="sans-serif" font-size="12" lengthAdjust="spacingAndGlyphs" textLength="104" x="1717" y="344.0605">(Image includes)</text><!--MD5=[f474ca078bd78d29e43d9c9138696efb]
entity Image--><rect fill="#D5E8D4" filter="url(#f1ph5u8db30wjv)" height="33.9688" style="stroke: #333333; stroke-width: 1.5;" width="161" x="1055.5" y="100.4531"/><rect fill="#D5E8D4" height="5" style="stroke: #333333; stroke-width: 1.5;" width="10" x="1050.5" y="105.4531"/><rect fill="#D5E8D4" height="5" style="stroke: #333333; stroke-width: 1.5;" width="10" x="1050.5" y="124.4219"/><text fill="#000000" font-family="sans-serif" font-size="12" lengthAdjust="spacingAndGlyphs" textLength="141" x="1065.5" y="121.5918">yuhesen-ugv-image.bb</text><path d="M1252,59.4531 L1252,113.4531 L1217,117.4531 L1252,121.4531 L1252,175.3828 A0,0 0 0 0 1252,175.3828 L1532,175.3828 A0,0 0 0 0 1532,175.3828 L1532,69.4531 L1522,59.4531 L1252,59.4531 A0,0 0 0 0 1252,59.4531 " fill="#FBFB77" filter="url(#f1ph5u8db30wjv)" style="stroke: #A80036; stroke-width: 1.0;"/><path d="M1522,59.4531 L1522,69.4531 L1532,69.4531 L1522,59.4531 " fill="#FBFB77" style="stroke: #A80036; stroke-width: 1.0;"/><text fill="#000000" font-family="sans-serif" font-size="13" font-weight="bold" lengthAdjust="spacingAndGlyphs" textLength="112" x="1258" y="76.52">IMAGE_INSTALL</text><text fill="#000000" font-family="sans-serif" font-size="13" lengthAdjust="spacingAndGlyphs" textLength="20" x="1374" y="76.52">= "</text><text fill="#000000" font-family="sans-serif" font-size="13" lengthAdjust="spacingAndGlyphs" textLength="158" x="1266" y="91.6528">packagegroup-core-boot</text><text fill="#000000" font-family="sans-serif" font-size="13" lengthAdjust="spacingAndGlyphs" textLength="99" x="1266" y="106.7856">kernel-modules</text><text fill="#000000" font-family="sans-serif" font-size="13" lengthAdjust="spacingAndGlyphs" textLength="90" x="1266" y="121.9185">mock-adxl345</text><text fill="#000000" font-family="sans-serif" font-size="13" lengthAdjust="spacingAndGlyphs" textLength="119" x="1266" y="137.0513">mock-adxl345-app</text><text fill="#000000" font-family="sans-serif" font-size="13" lengthAdjust="spacingAndGlyphs" textLength="5" x="1258" y="152.1841">"</text><text fill="#000000" font-family="sans-serif" font-size="13" lengthAdjust="spacingAndGlyphs" textLength="259" x="1258" y="167.3169">IMAGE_FSTYPES = "tar.bz2 ext4 wic.bz2"</text><path d="M6,616.9531 L6,717.75 L318,717.75 L318,626.9531 L308,616.9531 L6,616.9531 " fill="#FBFB77" filter="url(#f1ph5u8db30wjv)" style="stroke: #A80036; stroke-width: 1.0;"/><path d="M308,616.9531 L308,626.9531 L318,626.9531 L308,616.9531 " fill="#FBFB77" style="stroke: #A80036; stroke-width: 1.0;"/><text fill="#000000" font-family="sans-serif" font-size="13" font-weight="bold" lengthAdjust="spacingAndGlyphs" textLength="195" x="12" y="634.02">Parallel Build Opportunity:</text><text fill="#000000" font-family="sans-serif" font-size="13" lengthAdjust="spacingAndGlyphs" textLength="255" x="12" y="649.1528">Because mock-adxl345-app has only an</text><text fill="#000000" font-family="sans-serif" font-size="13" lengthAdjust="spacingAndGlyphs" textLength="291" x="12" y="664.2856">RDEPENDS (not DEPENDS) on mock-adxl345,</text><text fill="#000000" font-family="sans-serif" font-size="13" lengthAdjust="spacingAndGlyphs" textLength="260" x="12" y="679.4185">both recipes can compile simultaneously</text><text fill="#000000" font-family="sans-serif" font-size="13" lengthAdjust="spacingAndGlyphs" textLength="254" x="12" y="694.5513">once virtual/kernel and dtc-native finish.</text><text fill="#000000" font-family="sans-serif" font-size="13" lengthAdjust="spacingAndGlyphs" textLength="265" x="12" y="709.6841">This saves build time on multi-core hosts.</text><path d="M1988.5,252.4531 L1988.5,413.7813 L2323.5,413.7813 L2323.5,262.4531 L2313.5,252.4531 L1988.5,252.4531 " fill="#FBFB77" filter="url(#f1ph5u8db30wjv)" style="stroke: #A80036; stroke-width: 1.0;"/><path d="M2313.5,252.4531 L2313.5,262.4531 L2323.5,262.4531 L2313.5,252.4531 " fill="#FBFB77" style="stroke: #A80036; stroke-width: 1.0;"/><text fill="#000000" font-family="sans-serif" font-size="13" font-weight="bold" lengthAdjust="spacingAndGlyphs" textLength="75" x="1994.5" y="269.52">DEPENDS:</text><text fill="#000000" font-family="sans-serif" font-size="13" lengthAdjust="spacingAndGlyphs" textLength="227" x="2073.5" y="269.52">Recipe B must finish building before</text><text fill="#000000" font-family="sans-serif" font-size="13" lengthAdjust="spacingAndGlyphs" textLength="292" x="1994.5" y="284.6528">Recipe A can start. Uses the kernel build tree,</text><text fill="#000000" font-family="sans-serif" font-size="13" lengthAdjust="spacingAndGlyphs" textLength="257" x="1994.5" y="299.7856">native tools, or libraries at compile time.</text><text fill="#000000" font-family="sans-serif" font-size="13" lengthAdjust="spacingAndGlyphs" textLength="0" x="1998.5" y="314.9185"/><text fill="#000000" font-family="sans-serif" font-size="13" font-weight="bold" lengthAdjust="spacingAndGlyphs" textLength="85" x="1994.5" y="330.0513">RDEPENDS:</text><text fill="#000000" font-family="sans-serif" font-size="13" lengthAdjust="spacingAndGlyphs" textLength="225" x="2083.5" y="330.0513">Recipe A needs Recipe B's package</text><text fill="#000000" font-family="sans-serif" font-size="13" lengthAdjust="spacingAndGlyphs" textLength="282" x="1994.5" y="345.1841">in the rootfs at runtime. Does NOT block the</text><text fill="#000000" font-family="sans-serif" font-size="13" lengthAdjust="spacingAndGlyphs" textLength="109" x="1994.5" y="360.3169">build of Recipe A.</text><text fill="#000000" font-family="sans-serif" font-size="13" lengthAdjust="spacingAndGlyphs" textLength="0" x="1998.5" y="375.4497"/><text fill="#000000" font-family="sans-serif" font-size="13" font-weight="bold" lengthAdjust="spacingAndGlyphs" textLength="72" x="1994.5" y="390.5825">INSTALLS:</text><text fill="#000000" font-family="sans-serif" font-size="13" lengthAdjust="spacingAndGlyphs" textLength="204" x="2070.5" y="390.5825">The image recipe lists packages</text><text fill="#000000" font-family="sans-serif" font-size="13" lengthAdjust="spacingAndGlyphs" textLength="235" x="1994.5" y="405.7153">to include in the final root filesystem.</text><!--MD5=[0312e9bae114882fa03e58d0c4586908]
link KmRecipe to GMN13--><path d="M330.04,308.8831 C407.66,277.5631 551.66,224.5031 680.5,204.7031 C778.24,189.6831 1031.49,174.0131 1125.5,204.7031 C1176.8,221.4531 1225.55,259.5031 1258.59,289.8331 " fill="none" id="KmRecipe-GMN13" style="stroke: #555555; stroke-width: 1.0; stroke-dasharray: 7.0,7.0;"/><!--MD5=[cbd20800b477338e0fbe539d95f01d97]
link Image to PkgBoot--><path d="M1159.89,134.6331 C1179.39,147.2331 1208.03,164.3831 1235,175.4531 C1329.79,214.3631 1395.41,152.8231 1458,233.9531 C1507.41,297.9931 1503.36,348.9831 1458,415.9531 C1337.32,594.1131 1067.31,645.5731 924.18,660.4331 " fill="none" id="Image-&gt;PkgBoot" style="stroke: #555555; stroke-width: 1.0;"/><polygon fill="#555555" points="919.15,660.9431,928.5138,663.9958,924.1235,660.4286,927.6906,656.0383,919.15,660.9431" style="stroke: #555555; stroke-width: 1.0;"/><text fill="#000000" font-family="sans-serif" font-size="13" lengthAdjust="spacingAndGlyphs" textLength="61" x="1494" y="337.52">INSTALLS</text><!--MD5=[6f0e49891cdfef09995c49759f7f3aeb]
link Image to KernelMods--><path d="M1157.99,134.5131 C1177.29,147.7431 1206.63,165.8531 1235,175.4531 C1375.68,223.0631 1474.53,115.4131 1564,233.9531 C1612.73,298.5131 1598.1,342.6031 1564,415.9531 C1415.71,734.9331 919.4,796.3531 742.39,808.1531 " fill="none" id="Image-&gt;KernelMods" style="stroke: #555555; stroke-width: 1.0;"/><polygon fill="#555555" points="737.24,808.4931,746.4836,811.8926,742.2292,808.1643,745.9575,803.9099,737.24,808.4931" style="stroke: #555555; stroke-width: 1.0;"/><text fill="#000000" font-family="sans-serif" font-size="13" lengthAdjust="spacingAndGlyphs" textLength="61" x="1546" y="513.52">INSTALLS</text><!--MD5=[53e1ee76ed041af4d133625d4f397dee]
link Image to KmRecipe--><path d="M1055.39,132.0731 C966.95,147.5631 821.06,174.7231 697,205.4531 C573.45,236.0531 432.2,280.0431 347.93,307.2631 " fill="none" id="Image-&gt;KmRecipe" style="stroke: #555555; stroke-width: 1.0;"/><polygon fill="#555555" points="342.96,308.8631,352.755,309.8915,347.7161,307.3206,350.287,302.2817,342.96,308.8631" style="stroke: #555555; stroke-width: 1.0;"/><text fill="#000000" font-family="sans-serif" font-size="13" lengthAdjust="spacingAndGlyphs" textLength="165" x="698" y="218.52">INSTALLS (mock-adxl345)</text><!--MD5=[59a6b8261f59207ba7a4502088a1751c]
link Image to AppRecipe--><path d="M1077.32,134.4731 C1017.34,152.5931 923.15,185.9431 852,233.9531 C822.97,253.5431 795.79,283.1831 778.01,304.7331 " fill="none" id="Image-&gt;AppRecipe" style="stroke: #555555; stroke-width: 1.0;"/><polygon fill="#555555" points="774.8,308.6531,783.5976,304.2258,777.9685,304.7852,777.409,299.1561,774.8,308.6531" style="stroke: #555555; stroke-width: 1.0;"/><text fill="#000000" font-family="sans-serif" font-size="13" lengthAdjust="spacingAndGlyphs" textLength="194" x="895" y="218.52">INSTALLS (mock-adxl345-app)</text><!--MD5=[953b325c73114146131eadfa9b16f6ae]
link KmRecipe to VirtKernel--><path d="M318.29,356.9631 C351.17,375.9031 394.24,405.7431 420,443.4531 C454.06,493.3131 437.24,517.0631 456,574.4531 C463.08,596.1331 472.29,620.2131 479.49,638.2931 " fill="none" id="KmRecipe-&gt;VirtKernel" style="stroke: #555555; stroke-width: 1.0;"/><polygon fill="#555555" points="481.46,643.2331,481.8314,633.3913,479.603,638.5907,474.4036,636.3624,481.46,643.2331" style="stroke: #555555; stroke-width: 1.0;"/><text fill="#000000" font-family="sans-serif" font-size="13" lengthAdjust="spacingAndGlyphs" textLength="141" x="457" y="513.52">DEPENDS (build-time)</text><!--MD5=[44793dc86816807a8efdcf448836bda9]
link VirtKernel to KmRecipe--><path d="M457.61,643.4331 C427.31,623.7831 380.66,596.5231 336,582.4531 C321.07,577.7531 276.42,586.1331 266,574.4531 C213.17,515.2431 242.6,411.4631 261.3,361.8731 " fill="none" id="VirtKernel-&gt;KmRecipe" style="stroke: #555555; stroke-width: 1.0;"/><polygon fill="#555555" points="263.19,356.9631,256.2215,363.923,261.3922,361.6287,263.6865,366.7995,263.19,356.9631" style="stroke: #555555; stroke-width: 1.0;"/><text fill="#000000" font-family="sans-serif" font-size="13" lengthAdjust="spacingAndGlyphs" textLength="144" x="267" y="513.52">provides build headers</text><!--MD5=[f17611b4f4ee961b1c98eb2bd92752ad]
link KmRecipe to DtcNative--><path d="M349.03,337.5631 C425.01,345.4531 539.42,369.7531 603,443.4531 C648.58,496.2831 649.7,583.0831 646.1,631.3331 " fill="none" id="KmRecipe-&gt;DtcNative" style="stroke: #555555; stroke-width: 1.0;"/><polygon fill="#555555" points="645.69,636.4531,650.3969,627.8018,646.0899,631.4691,642.4226,627.1621,645.69,636.4531" style="stroke: #555555; stroke-width: 1.0;"/><text fill="#000000" font-family="sans-serif" font-size="13" lengthAdjust="spacingAndGlyphs" textLength="141" x="733.5" y="456.52">DEPENDS (build-time)</text><path d="M651,465.5859 L651,565.5859 L953,565.5859 L953,475.5859 L943,465.5859 L651,465.5859 " fill="#E1D5E7" filter="url(#f1ph5u8db30wjv)" style="stroke: #A80036; stroke-width: 1.0;"/><path d="M943,465.5859 L943,475.5859 L953,475.5859 L943,465.5859 " fill="#E1D5E7" style="stroke: #A80036; stroke-width: 1.0;"/><text fill="#000000" font-family="sans-serif" font-size="13" font-weight="bold" lengthAdjust="spacingAndGlyphs" textLength="281" x="657" y="482.6528">DEPENDS = "virtual/kernel dtc-native"</text><text fill="#000000" font-family="sans-serif" font-size="13" lengthAdjust="spacingAndGlyphs" textLength="211" x="657" y="497.7856">module.bbclass needs the kernel</text><text fill="#000000" font-family="sans-serif" font-size="13" lengthAdjust="spacingAndGlyphs" textLength="212" x="657" y="512.9185">build tree for cross-compiling .ko.</text><text fill="#000000" font-family="sans-serif" font-size="13" lengthAdjust="spacingAndGlyphs" textLength="225" x="657" y="528.0513">dtc-native compiles the DT overlay.</text><text fill="#000000" font-family="sans-serif" font-size="13" lengthAdjust="spacingAndGlyphs" textLength="202" x="657" y="543.1841">Both must finish building before</text><text fill="#000000" font-family="sans-serif" font-size="13" lengthAdjust="spacingAndGlyphs" textLength="155" x="657" y="558.3169">mock-adxl345 can start.</text><!--MD5=[34e5065af2fbdcaa01bb148dd881a861]
link VirtKernel to KernelMods--><path d="M521.62,691.6631 C558.42,719.5531 619.46,765.8231 653.7,791.7831 " fill="none" id="VirtKernel-&gt;KernelMods" style="stroke: #555555; stroke-width: 1.0;"/><polygon fill="#555555" points="657.74,794.8431,652.9745,786.224,653.752,791.8271,648.1489,792.6047,657.74,794.8431" style="stroke: #555555; stroke-width: 1.0;"/><text fill="#000000" font-family="sans-serif" font-size="13" lengthAdjust="spacingAndGlyphs" textLength="54" x="619" y="761.02">provides</text><!--MD5=[575d2901ac7e4b8cb0e656df441b47f3]
reverse link KmRecipe to AppRecipe--><path d="M354.24,332.9531 C444.93,332.9531 590.62,332.9531 679.69,332.9531 " fill="none" id="KmRecipe&lt;-AppRecipe" style="stroke: #555555; stroke-width: 1.0; stroke-dasharray: 7.0,7.0;"/><polygon fill="#555555" points="349.16,332.9531,358.16,336.9531,354.16,332.9531,358.16,328.9531,349.16,332.9531" style="stroke: #555555; stroke-width: 1.0;"/><text fill="#000000" font-family="sans-serif" font-size="13" lengthAdjust="spacingAndGlyphs" textLength="165" x="432" y="136.02">RDEPENDS (runtime only)</text><path d="M371.5,145.0859 L371.5,321.0859 L653.5,321.0859 L653.5,155.0859 L643.5,145.0859 L371.5,145.0859 " fill="#DAE8FC" filter="url(#f1ph5u8db30wjv)" style="stroke: #A80036; stroke-width: 1.0;"/><path d="M643.5,145.0859 L643.5,155.0859 L653.5,155.0859 L643.5,145.0859 " fill="#DAE8FC" style="stroke: #A80036; stroke-width: 1.0;"/><text fill="#000000" font-family="sans-serif" font-size="13" font-weight="bold" lengthAdjust="spacingAndGlyphs" textLength="218" x="377.5" y="162.1528">RDEPENDS = "mock-adxl345"</text><text fill="#000000" font-family="sans-serif" font-size="13" lengthAdjust="spacingAndGlyphs" textLength="0" x="381.5" y="177.2856"/><text fill="#000000" font-family="sans-serif" font-size="13" lengthAdjust="spacingAndGlyphs" textLength="228" x="377.5" y="192.4185">No build-time dependency! The app</text><text fill="#000000" font-family="sans-serif" font-size="13" lengthAdjust="spacingAndGlyphs" textLength="247" x="377.5" y="207.5513">can compile without the kernel module</text><text fill="#000000" font-family="sans-serif" font-size="13" lengthAdjust="spacingAndGlyphs" textLength="213" x="377.5" y="222.6841">being built. DEPENDS would force</text><text fill="#000000" font-family="sans-serif" font-size="13" lengthAdjust="spacingAndGlyphs" textLength="218" x="377.5" y="237.8169">serialization but RDEPENDS allows</text><text fill="#000000" font-family="sans-serif" font-size="13" lengthAdjust="spacingAndGlyphs" textLength="91" x="377.5" y="252.9497">parallel builds.</text><text fill="#000000" font-family="sans-serif" font-size="13" lengthAdjust="spacingAndGlyphs" textLength="0" x="381.5" y="268.0825"/><text fill="#000000" font-family="sans-serif" font-size="13" lengthAdjust="spacingAndGlyphs" textLength="261" x="377.5" y="283.2153">RDEPENDS ensures the module package</text><text fill="#000000" font-family="sans-serif" font-size="13" lengthAdjust="spacingAndGlyphs" textLength="226" x="377.5" y="298.3481">is installed into the rootfs alongside</text><text fill="#000000" font-family="sans-serif" font-size="13" lengthAdjust="spacingAndGlyphs" textLength="212" x="377.5" y="313.481">the app at image assembly time.</text><!--MD5=[9d57561937e49d52d586604e04ec5ddc]
link Custom to GMN30--><path d="M162,400.9366 C162,413.6952 162,427.6844 162,442.3606 C162,501.0656 162,570.7631 162,616.6631 " fill="none" id="Custom-GMN30" style="stroke: #555555; stroke-width: 1.0; stroke-dasharray: 7.0,7.0;"/><!--MD5=[e24a440be0a5c8d94b679bb68cc54333]
link Legend to GMN37--><path d="M1964.2662,127.2787 C1965.7984,128.9143 1967.5223,130.7545 1969.4197,132.78 C1977.0094,140.8819 1987.3762,151.9481 1999.3625,164.7431 C2023.335,190.3331 2053.785,222.8381 2081.45,252.3731 " fill="none" id="Legend-GMN37" style="stroke: #555555; stroke-width: 1.0; stroke-dasharray: 7.0,7.0;"/><!--MD5=[4c5dc7cf5298c5b2a2caab14bcb06fd6]
link DependsLegend to RdependsLegend--><!--MD5=[dd53d2e7f476ee0a8a672645be61b093]
link DependsLegend to InstallsLegend--><!--MD5=[75fe28200b7be219a304d2cd0caa06c8]
@startuml


skinparam component {
  BorderColor #333333
  FontSize 12
}

skinparam package {
  BackgroundColor #F9F9F9
  BorderColor #999999
  FontSize 12
}

skinparam arrow {
  Color #555555
}

title Yocto Recipe Dependency Graph — DEPENDS vs RDEPENDS

component "yuhesen-ugv-image.bb" as Image #D5E8D4
note right of Image
  **IMAGE_INSTALL** = "
    packagegroup-core-boot
    kernel-modules
    mock-adxl345
    mock-adxl345-app
  "
  IMAGE_FSTYPES = "tar.bz2 ext4 wic.bz2"
end note

package "Upstream Packages\n(from poky / meta layers)" as Upstream #F5F5F5 {
  component "packagegroup-core-boot" as PkgBoot
  component "kernel-modules" as KernelMods
  component "virtual/kernel\n(Linux 5.15)" as VirtKernel
  component "dtc-native\n(Host Device Tree\nCompiler)" as DtcNative
}

package "Custom Layer: meta-yuhesen_ugv" as Custom #FFFFFF {

  component "mock-adxl345\nmock-adxl345_1.0.bb" as KmRecipe #F8CECC
  note right of KmRecipe
    **Out-of-tree kernel module:**
    - mock_adxl345.ko
    - mock-adxl345.dtbo
    Produces: mock-adxl345-1.0.rpm
    Auto-load: KERNEL_MODULE_AUTOLOAD
  end note

  component "mock-adxl345-app\nmock-adxl345-app.bb" as AppRecipe #DAE8FC
  note right of AppRecipe
    **User-space application:**
    - mock-adxl345-reader binary
    - mock-adxl345-reader.service
    Produces: mock-adxl345-app.rpm
    Auto-start: SYSTEMD_AUTO_ENABLE
  end note
}


Image - -> PkgBoot : "INSTALLS"
Image - -> KernelMods : "INSTALLS"
Image - -> KmRecipe : "INSTALLS (mock-adxl345)"
Image - -> AppRecipe : "INSTALLS (mock-adxl345-app)"

KmRecipe - -> VirtKernel : "DEPENDS (build-time)"
KmRecipe - -> DtcNative : "DEPENDS (build-time)"

note on link #E1D5E7
  **DEPENDS = "virtual/kernel dtc-native"**
  module.bbclass needs the kernel
  build tree for cross-compiling .ko.
  dtc-native compiles the DT overlay.
  Both must finish building before
  mock-adxl345 can start.
end note

VirtKernel - -> KernelMods : "provides"
VirtKernel - -> KmRecipe : "provides build headers"

AppRecipe .left.> KmRecipe : "RDEPENDS (runtime only)"
note on link #DAE8FC
  **RDEPENDS = "mock-adxl345"**

  No build-time dependency! The app
  can compile without the kernel module
  being built. DEPENDS would force
  serialization but RDEPENDS allows
  parallel builds.

  RDEPENDS ensures the module package
  is installed into the rootfs alongside
  the app at image assembly time.
end note

note bottom of Custom
  **Parallel Build Opportunity:**
  Because mock-adxl345-app has only an
  RDEPENDS (not DEPENDS) on mock-adxl345,
  both recipes can compile simultaneously
  once virtual/kernel and dtc-native finish.
  This saves build time on multi-core hosts.
end note

rectangle "Legend" as Legend #FFFFFF {
  component "DEPENDS\n(Build-time)" as DependsLegend
  component "RDEPENDS\n(Runtime)" as RdependsLegend
  component "INSTALLS\n(Image includes)" as InstallsLegend
}

note bottom of Legend
  **DEPENDS:** Recipe B must finish building before
  Recipe A can start. Uses the kernel build tree,
  native tools, or libraries at compile time.

  **RDEPENDS:** Recipe A needs Recipe B's package
  in the rootfs at runtime. Does NOT block the
  build of Recipe A.

  **INSTALLS:** The image recipe lists packages
  to include in the final root filesystem.
end note

@enduml

PlantUML version 1.2020.02(Sun Mar 01 11:22:07 CET 2020)
(GPL source distribution)
Java Runtime: OpenJDK Runtime Environment
JVM: OpenJDK 64-Bit Server VM
Java Version: 11.0.31+11-post-1ubuntu1-22.04.2-Ubuntu
Operating System: Linux
Default Encoding: UTF-8
Language: en
Country: null
--></g></svg>