<?xml version="1.0" encoding="UTF-8" standalone="no"?><svg xmlns="http://www.w3.org/2000/svg" xmlns:xlink="http://www.w3.org/1999/xlink" contentScriptType="application/ecmascript" contentStyleType="text/css" height="1677px" preserveAspectRatio="none" style="width:2611px;height:1677px;" version="1.1" viewBox="0 0 2611 1677" width="2611px" zoomAndPan="magnify"><defs><filter height="300%" id="frxlp3lym0zyj" width="300%" x="-1" y="-1"><feGaussianBlur result="blurOut" stdDeviation="2.0"/><feColorMatrix in="blurOut" result="blurOut2" type="matrix" values="0 0 0 0 0 0 0 0 0 0 0 0 0 0 0 0 0 0 .4 0"/><feOffset dx="4.0" dy="4.0" in="blurOut2" result="blurOut3"/><feBlend in="SourceGraphic" in2="blurOut3" mode="normal"/></filter></defs><g><text fill="#000000" font-family="sans-serif" font-size="18" lengthAdjust="spacingAndGlyphs" textLength="549" x="1034.5" y="16.708">Runtime Data Flow — Kernel Module → IIO → User-Space App</text><!--MD5=[1e105b1eb44065491b28972ed5c3edce]
cluster KernelSpace--><polygon fill="#F8CECC" filter="url(#frxlp3lym0zyj)" points="777,45.4531,880,45.4531,887,66.5859,2564,66.5859,2564,627.4531,777,627.4531,777,45.4531" style="stroke: #000000; stroke-width: 1.5;"/><line style="stroke: #000000; stroke-width: 1.5;" x1="777" x2="887" y1="66.5859" y2="66.5859"/><text fill="#000000" font-family="sans-serif" font-size="13" font-weight="bold" lengthAdjust="spacingAndGlyphs" textLength="97" x="781" y="59.52">Kernel Space</text><!--MD5=[61c41a14a0f790ada34cbd71756aea65]
cluster Driver--><rect fill="#F8CECC" filter="url(#frxlp3lym0zyj)" height="514" style="stroke: #333333; stroke-width: 1.5;" width="388" x="801" y="89.4531"/><text fill="#000000" font-family="sans-serif" font-size="12" font-weight="bold" lengthAdjust="spacingAndGlyphs" textLength="117" x="936.5" y="102.5918">mock_adxl345.ko</text><!--MD5=[a330e99ff21aca0d091f58492cc35d1b]
cluster IIO--><rect fill="#E1D5E7" filter="url(#frxlp3lym0zyj)" height="340" style="stroke: #333333; stroke-width: 1.5;" width="487" x="2053" y="263.4531"/><text fill="#000000" font-family="sans-serif" font-size="12" font-weight="bold" lengthAdjust="spacingAndGlyphs" textLength="101" x="2246" y="276.5918">IIO Subsystem</text><!--MD5=[3234e32c6163dbcfb128d73892e1b63f]
cluster Sysfs--><rect fill="#FFF2CC" filter="url(#frxlp3lym0zyj)" height="112" style="stroke: #333333; stroke-width: 1.5;" width="816" x="1213" y="491.4531"/><text fill="#000000" font-family="sans-serif" font-size="12" font-weight="bold" lengthAdjust="spacingAndGlyphs" textLength="111" x="1565.5" y="504.5918">sysfs VFS Layer</text><!--MD5=[19741e007bdf8b18f255d60ef06db1fd]
cluster UserSpace--><polygon fill="#DAE8FC" filter="url(#frxlp3lym0zyj)" points="22,459.4531,111,459.4531,118,480.5859,753,480.5859,753,1562.9531,22,1562.9531,22,459.4531" style="stroke: #000000; stroke-width: 1.5;"/><line style="stroke: #000000; stroke-width: 1.5;" x1="22" x2="118" y1="480.5859" y2="480.5859"/><text fill="#000000" font-family="sans-serif" font-size="13" font-weight="bold" lengthAdjust="spacingAndGlyphs" textLength="83" x="26" y="473.52">User Space</text><!--MD5=[42e3fa60eae07af605ef18b411b13003]
cluster ReaderApp--><rect fill="#DAE8FC" filter="url(#frxlp3lym0zyj)" height="543" style="stroke: #333333; stroke-width: 1.5;" width="667" x="54" y="701.4531"/><text fill="#000000" font-family="sans-serif" font-size="12" font-weight="bold" lengthAdjust="spacingAndGlyphs" textLength="147" x="314" y="714.5918">mock-adxl345-reader</text><text fill="#000000" font-family="sans-serif" font-size="12" font-weight="bold" lengthAdjust="spacingAndGlyphs" textLength="173" x="301" y="728.5605">(User-space application)</text><!--MD5=[43acc1a5bbd009f26b899c423c01b543]
cluster Output--><rect fill="#DAE8FC" filter="url(#frxlp3lym0zyj)" height="128" style="stroke: #333333; stroke-width: 1.5;" width="382" x="170" y="1402.9531"/><text fill="#000000" font-family="sans-serif" font-size="12" font-weight="bold" lengthAdjust="spacingAndGlyphs" textLength="50" x="336" y="1416.0918">Output</text><!--MD5=[65553002ead796e1c38407380a9c2ffe]
entity Probe--><rect fill="#FEFECE" filter="url(#frxlp3lym0zyj)" height="47.9375" style="stroke: #333333; stroke-width: 1.5;" width="161" x="1011.5" y="137.4531"/><rect fill="#FEFECE" height="5" style="stroke: #333333; stroke-width: 1.5;" width="10" x="1006.5" y="142.4531"/><rect fill="#FEFECE" height="5" style="stroke: #333333; stroke-width: 1.5;" width="10" x="1006.5" y="175.3906"/><text fill="#000000" font-family="sans-serif" font-size="12" lengthAdjust="spacingAndGlyphs" textLength="141" x="1021.5" y="158.5918">mock_adxl345_probe()</text><text fill="#000000" font-family="sans-serif" font-size="12" lengthAdjust="spacingAndGlyphs" textLength="95" x="1021.5" y="172.5605">Initializes driver</text><!--MD5=[8bc846fac1f9589f9c5ed77efea87238]
entity ReadRaw--><rect fill="#FEFECE" filter="url(#frxlp3lym0zyj)" height="47.9375" style="stroke: #333333; stroke-width: 1.5;" width="181" x="991.5" y="539.4531"/><rect fill="#FEFECE" height="5" style="stroke: #333333; stroke-width: 1.5;" width="10" x="986.5" y="544.4531"/><rect fill="#FEFECE" height="5" style="stroke: #333333; stroke-width: 1.5;" width="10" x="986.5" y="577.3906"/><text fill="#000000" font-family="sans-serif" font-size="12" lengthAdjust="spacingAndGlyphs" textLength="161" x="1001.5" y="560.5918">mock_adxl345_read_raw()</text><text fill="#000000" font-family="sans-serif" font-size="12" lengthAdjust="spacingAndGlyphs" textLength="103" x="1001.5" y="574.5605">IIO read callback</text><!--MD5=[809ba31a491e22d5766c289359330979]
entity SineGen--><rect fill="#FEFECE" filter="url(#frxlp3lym0zyj)" height="61.9063" style="stroke: #333333; stroke-width: 1.5;" width="155" x="820.5" y="304.4531"/><rect fill="#FEFECE" height="5" style="stroke: #333333; stroke-width: 1.5;" width="10" x="815.5" y="309.4531"/><rect fill="#FEFECE" height="5" style="stroke: #333333; stroke-width: 1.5;" width="10" x="815.5" y="356.3594"/><text fill="#000000" font-family="sans-serif" font-size="12" lengthAdjust="spacingAndGlyphs" textLength="65" x="830.5" y="325.5918">sine_milli()</text><text fill="#000000" font-family="sans-serif" font-size="12" lengthAdjust="spacingAndGlyphs" textLength="135" x="830.5" y="339.5605">Parabolic sine approx</text><text fill="#000000" font-family="sans-serif" font-size="12" lengthAdjust="spacingAndGlyphs" textLength="94" x="830.5" y="353.5293">(no float math)</text><!--MD5=[1bfc463d4b7b2bceea9aef8616727621]
entity Timer--><rect fill="#FEFECE" filter="url(#frxlp3lym0zyj)" height="47.9375" style="stroke: #333333; stroke-width: 1.5;" width="114" x="841" y="137.4531"/><rect fill="#FEFECE" height="5" style="stroke: #333333; stroke-width: 1.5;" width="10" x="836" y="142.4531"/><rect fill="#FEFECE" height="5" style="stroke: #333333; stroke-width: 1.5;" width="10" x="836" y="175.3906"/><text fill="#000000" font-family="sans-serif" font-size="12" lengthAdjust="spacingAndGlyphs" textLength="92" x="851" y="158.5918">ktime_get_ns()</text><text fill="#000000" font-family="sans-serif" font-size="12" lengthAdjust="spacingAndGlyphs" textLength="94" x="851" y="172.5605">Time reference</text><!--MD5=[4c3991a79010743bd112a724f1b2a1cd]
entity IioDev--><rect fill="#FEFECE" filter="url(#frxlp3lym0zyj)" height="47.9375" style="stroke: #333333; stroke-width: 1.5;" width="111" x="2413.5" y="311.4531"/><rect fill="#FEFECE" height="5" style="stroke: #333333; stroke-width: 1.5;" width="10" x="2408.5" y="316.4531"/><rect fill="#FEFECE" height="5" style="stroke: #333333; stroke-width: 1.5;" width="10" x="2408.5" y="349.3906"/><text fill="#000000" font-family="sans-serif" font-size="12" lengthAdjust="spacingAndGlyphs" textLength="42" x="2423.5" y="332.5918">iio_dev</text><text fill="#000000" font-family="sans-serif" font-size="12" lengthAdjust="spacingAndGlyphs" textLength="91" x="2423.5" y="346.5605">(device struct)</text><!--MD5=[809e47913b66da6c33a857166b8687a5]
entity Channels--><rect fill="#FEFECE" filter="url(#frxlp3lym0zyj)" height="47.9375" style="stroke: #333333; stroke-width: 1.5;" width="130" x="2248" y="311.4531"/><rect fill="#FEFECE" height="5" style="stroke: #333333; stroke-width: 1.5;" width="10" x="2243" y="316.4531"/><rect fill="#FEFECE" height="5" style="stroke: #333333; stroke-width: 1.5;" width="10" x="2243" y="349.3906"/><text fill="#000000" font-family="sans-serif" font-size="12" lengthAdjust="spacingAndGlyphs" textLength="105" x="2258" y="332.5918">iio_chan_spec[3]</text><text fill="#000000" font-family="sans-serif" font-size="12" lengthAdjust="spacingAndGlyphs" textLength="110" x="2258" y="346.5605">(X, Y, Z channels)</text><!--MD5=[8464bc60979097a079e2d46dce99e7c0]
entity IioInfo--><rect fill="#FEFECE" filter="url(#frxlp3lym0zyj)" height="47.9375" style="stroke: #333333; stroke-width: 1.5;" width="146" x="2292" y="539.4531"/><rect fill="#FEFECE" height="5" style="stroke: #333333; stroke-width: 1.5;" width="10" x="2287" y="544.4531"/><rect fill="#FEFECE" height="5" style="stroke: #333333; stroke-width: 1.5;" width="10" x="2287" y="577.3906"/><text fill="#000000" font-family="sans-serif" font-size="12" lengthAdjust="spacingAndGlyphs" textLength="43" x="2302" y="560.5918">iio_info</text><text fill="#000000" font-family="sans-serif" font-size="12" lengthAdjust="spacingAndGlyphs" textLength="126" x="2302" y="574.5605">(.read_raw callback)</text><!--MD5=[2efdefd4f9c649401ec736ae1b9d6d2f]
entity IioDevice--><rect fill="#FEFECE" filter="url(#frxlp3lym0zyj)" height="47.9375" style="stroke: #333333; stroke-width: 1.5;" width="144" x="2069" y="311.4531"/><rect fill="#FEFECE" height="5" style="stroke: #333333; stroke-width: 1.5;" width="10" x="2064" y="316.4531"/><rect fill="#FEFECE" height="5" style="stroke: #333333; stroke-width: 1.5;" width="10" x="2064" y="349.3906"/><text fill="#000000" font-family="sans-serif" font-size="12" lengthAdjust="spacingAndGlyphs" textLength="124" x="2079" y="332.5918">/sys/bus/iio/devices/</text><text fill="#000000" font-family="sans-serif" font-size="12" lengthAdjust="spacingAndGlyphs" textLength="70" x="2079" y="346.5605">iio:device0/</text><!--MD5=[560c30d1dde552702febc8a5bd753779]
entity SysfsX--><rect fill="#FEFECE" filter="url(#frxlp3lym0zyj)" height="47.9375" style="stroke: #333333; stroke-width: 1.5;" width="132" x="1714" y="539.4531"/><rect fill="#FEFECE" height="5" style="stroke: #333333; stroke-width: 1.5;" width="10" x="1709" y="544.4531"/><rect fill="#FEFECE" height="5" style="stroke: #333333; stroke-width: 1.5;" width="10" x="1709" y="577.3906"/><text fill="#000000" font-family="sans-serif" font-size="12" lengthAdjust="spacingAndGlyphs" textLength="90" x="1724" y="560.5918">in_accel_x_raw</text><text fill="#000000" font-family="sans-serif" font-size="12" lengthAdjust="spacingAndGlyphs" textLength="112" x="1724" y="574.5605">(read returns mg)</text><!--MD5=[3c40bb243d3f620f77d0785c5c33f566]
entity SysfsY--><rect fill="#FEFECE" filter="url(#frxlp3lym0zyj)" height="47.9375" style="stroke: #333333; stroke-width: 1.5;" width="132" x="1881" y="539.4531"/><rect fill="#FEFECE" height="5" style="stroke: #333333; stroke-width: 1.5;" width="10" x="1876" y="544.4531"/><rect fill="#FEFECE" height="5" style="stroke: #333333; stroke-width: 1.5;" width="10" x="1876" y="577.3906"/><text fill="#000000" font-family="sans-serif" font-size="12" lengthAdjust="spacingAndGlyphs" textLength="90" x="1891" y="560.5918">in_accel_y_raw</text><text fill="#000000" font-family="sans-serif" font-size="12" lengthAdjust="spacingAndGlyphs" textLength="112" x="1891" y="574.5605">(read returns mg)</text><!--MD5=[6a952d2d24d1c166babbcb499abaf4b9]
entity SysfsZ--><rect fill="#FEFECE" filter="url(#frxlp3lym0zyj)" height="47.9375" style="stroke: #333333; stroke-width: 1.5;" width="132" x="1229" y="539.4531"/><rect fill="#FEFECE" height="5" style="stroke: #333333; stroke-width: 1.5;" width="10" x="1224" y="544.4531"/><rect fill="#FEFECE" height="5" style="stroke: #333333; stroke-width: 1.5;" width="10" x="1224" y="577.3906"/><text fill="#000000" font-family="sans-serif" font-size="12" lengthAdjust="spacingAndGlyphs" textLength="89" x="1239" y="560.5918">in_accel_z_raw</text><text fill="#000000" font-family="sans-serif" font-size="12" lengthAdjust="spacingAndGlyphs" textLength="112" x="1239" y="574.5605">(read returns mg)</text><!--MD5=[a8d9fba28518bb717107c37cb5dcaa46]
entity SysfsScale--><rect fill="#FEFECE" filter="url(#frxlp3lym0zyj)" height="47.9375" style="stroke: #333333; stroke-width: 1.5;" width="109" x="1396.5" y="539.4531"/><rect fill="#FEFECE" height="5" style="stroke: #333333; stroke-width: 1.5;" width="10" x="1391.5" y="544.4531"/><rect fill="#FEFECE" height="5" style="stroke: #333333; stroke-width: 1.5;" width="10" x="1391.5" y="577.3906"/><text fill="#000000" font-family="sans-serif" font-size="12" lengthAdjust="spacingAndGlyphs" textLength="89" x="1406.5" y="560.5918">in_accel_scale</text><text fill="#000000" font-family="sans-serif" font-size="12" lengthAdjust="spacingAndGlyphs" textLength="88" x="1406.5" y="574.5605">(4000 ug/LSB)</text><!--MD5=[6beec7271fc24ed77c8e51950e9c8e21]
entity SysfsName--><rect fill="#FEFECE" filter="url(#frxlp3lym0zyj)" height="47.9375" style="stroke: #333333; stroke-width: 1.5;" width="138" x="1541" y="539.4531"/><rect fill="#FEFECE" height="5" style="stroke: #333333; stroke-width: 1.5;" width="10" x="1536" y="544.4531"/><rect fill="#FEFECE" height="5" style="stroke: #333333; stroke-width: 1.5;" width="10" x="1536" y="577.3906"/><text fill="#000000" font-family="sans-serif" font-size="12" lengthAdjust="spacingAndGlyphs" textLength="35" x="1551" y="560.5918">name</text><text fill="#000000" font-family="sans-serif" font-size="12" lengthAdjust="spacingAndGlyphs" textLength="118" x="1551" y="574.5605">→ \"mock-adxl345\"</text><!--MD5=[27f959b626da82b850f333cc8c8c8459]
entity Boundary--><rect fill="#F5F5F5" filter="url(#frxlp3lym0zyj)" height="47.9375" style="stroke: #333333; stroke-width: 1.5;" width="163" x="1213.5" y="785.4531"/><text fill="#000000" font-family="sans-serif" font-size="12" lengthAdjust="spacingAndGlyphs" textLength="143" x="1223.5" y="806.5918">Kernel / User Boundary</text><text fill="#000000" font-family="sans-serif" font-size="12" lengthAdjust="spacingAndGlyphs" textLength="96" x="1223.5" y="820.5605">(sysfs file read)</text><!--MD5=[048d0e31518d64d0482c22d4e53f628f]
entity SystemdSvc--><rect fill="#FEFECE" filter="url(#frxlp3lym0zyj)" height="103.8125" style="stroke: #333333; stroke-width: 1.5;" width="200" x="38" y="511.4531"/><rect fill="#FEFECE" height="5" style="stroke: #333333; stroke-width: 1.5;" width="10" x="33" y="516.4531"/><rect fill="#FEFECE" height="5" style="stroke: #333333; stroke-width: 1.5;" width="10" x="33" y="605.2656"/><text fill="#000000" font-family="sans-serif" font-size="12" lengthAdjust="spacingAndGlyphs" textLength="52" x="48" y="532.5918">systemd</text><text fill="#000000" font-family="sans-serif" font-size="12" lengthAdjust="spacingAndGlyphs" textLength="180" x="48" y="546.5605">mock-adxl345-reader.service</text><text fill="#000000" font-family="sans-serif" font-size="12" lengthAdjust="spacingAndGlyphs" textLength="0" x="52" y="560.5293"/><text fill="#000000" font-family="sans-serif" font-size="12" lengthAdjust="spacingAndGlyphs" textLength="79" x="48" y="574.498">Type=simple</text><text fill="#000000" font-family="sans-serif" font-size="12" lengthAdjust="spacingAndGlyphs" textLength="115" x="48" y="588.4668">Restart=on-failure</text><text fill="#000000" font-family="sans-serif" font-size="12" lengthAdjust="spacingAndGlyphs" textLength="65" x="48" y="602.4355">User=root</text><!--MD5=[838771fec54609c0936cbb69c8b3647f]
entity MainLoop--><rect fill="#FEFECE" filter="url(#frxlp3lym0zyj)" height="47.9375" style="stroke: #333333; stroke-width: 1.5;" width="93" x="305.5" y="785.4531"/><rect fill="#FEFECE" height="5" style="stroke: #333333; stroke-width: 1.5;" width="10" x="300.5" y="790.4531"/><rect fill="#FEFECE" height="5" style="stroke: #333333; stroke-width: 1.5;" width="10" x="300.5" y="823.3906"/><text fill="#000000" font-family="sans-serif" font-size="12" lengthAdjust="spacingAndGlyphs" textLength="40" x="315.5" y="806.5918">main()</text><text fill="#000000" font-family="sans-serif" font-size="12" lengthAdjust="spacingAndGlyphs" textLength="73" x="315.5" y="820.5605">Infinite loop</text><!--MD5=[1f0946e3979d72a60f81de57dfc99999]
entity ReadFn--><rect fill="#FEFECE" filter="url(#frxlp3lym0zyj)" height="47.9375" style="stroke: #333333; stroke-width: 1.5;" width="166" x="474" y="958.9531"/><rect fill="#FEFECE" height="5" style="stroke: #333333; stroke-width: 1.5;" width="10" x="469" y="963.9531"/><rect fill="#FEFECE" height="5" style="stroke: #333333; stroke-width: 1.5;" width="10" x="469" y="996.8906"/><text fill="#000000" font-family="sans-serif" font-size="12" lengthAdjust="spacingAndGlyphs" textLength="98" x="484" y="980.0918">read_sysfs_int()</text><text fill="#000000" font-family="sans-serif" font-size="12" lengthAdjust="spacingAndGlyphs" textLength="146" x="484" y="994.0605">Parses integer from file</text><!--MD5=[8f352aa0d9cee7fd26ebab0dff220e7c]
entity Convert--><rect fill="#FEFECE" filter="url(#frxlp3lym0zyj)" height="61.9063" style="stroke: #333333; stroke-width: 1.5;" width="132" x="86" y="951.9531"/><rect fill="#FEFECE" height="5" style="stroke: #333333; stroke-width: 1.5;" width="10" x="81" y="956.9531"/><rect fill="#FEFECE" height="5" style="stroke: #333333; stroke-width: 1.5;" width="10" x="81" y="1003.8594"/><text fill="#000000" font-family="sans-serif" font-size="12" lengthAdjust="spacingAndGlyphs" textLength="112" x="96" y="973.0918">value_mg = raw ×</text><text fill="#000000" font-family="sans-serif" font-size="12" lengthAdjust="spacingAndGlyphs" textLength="77" x="96" y="987.0605">scale / 1000</text><text fill="#000000" font-family="sans-serif" font-size="12" lengthAdjust="spacingAndGlyphs" textLength="104" x="96" y="1001.0293">Convert to milli-g</text><!--MD5=[c0f3480da26a3be54113cca2d6692705]
entity PrintFn--><rect fill="#FEFECE" filter="url(#frxlp3lym0zyj)" height="47.9375" style="stroke: #333333; stroke-width: 1.5;" width="131" x="404.5" y="1172.4531"/><rect fill="#FEFECE" height="5" style="stroke: #333333; stroke-width: 1.5;" width="10" x="399.5" y="1177.4531"/><rect fill="#FEFECE" height="5" style="stroke: #333333; stroke-width: 1.5;" width="10" x="399.5" y="1210.3906"/><text fill="#000000" font-family="sans-serif" font-size="12" lengthAdjust="spacingAndGlyphs" textLength="43" x="414.5" y="1193.5918">printf()</text><text fill="#000000" font-family="sans-serif" font-size="12" lengthAdjust="spacingAndGlyphs" textLength="111" x="414.5" y="1207.5605">Formatted output</text><!--MD5=[7b2417c4049cb0a5f80ed5457e105db7]
entity SleepFn--><rect fill="#FEFECE" filter="url(#frxlp3lym0zyj)" height="47.9375" style="stroke: #333333; stroke-width: 1.5;" width="128" x="253" y="958.9531"/><rect fill="#FEFECE" height="5" style="stroke: #333333; stroke-width: 1.5;" width="10" x="248" y="963.9531"/><rect fill="#FEFECE" height="5" style="stroke: #333333; stroke-width: 1.5;" width="10" x="248" y="996.8906"/><text fill="#000000" font-family="sans-serif" font-size="12" lengthAdjust="spacingAndGlyphs" textLength="52" x="263" y="980.0918">sleep(2)</text><text fill="#000000" font-family="sans-serif" font-size="12" lengthAdjust="spacingAndGlyphs" textLength="108" x="263" y="994.0605">2-second interval</text><!--MD5=[5c1f6a36e5e88d7c8563680648f3d8b9]
entity Stdout--><rect fill="#FEFECE" filter="url(#frxlp3lym0zyj)" height="33.9688" style="stroke: #333333; stroke-width: 1.5;" width="116" x="412" y="1465.9531"/><rect fill="#FEFECE" height="5" style="stroke: #333333; stroke-width: 1.5;" width="10" x="407" y="1470.9531"/><rect fill="#FEFECE" height="5" style="stroke: #333333; stroke-width: 1.5;" width="10" x="407" y="1489.9219"/><text fill="#000000" font-family="sans-serif" font-size="12" lengthAdjust="spacingAndGlyphs" textLength="96" x="422" y="1487.0918">stdout / journal</text><!--MD5=[a3ffab9f7b3f36f7424bcc9a62ffef59]
entity Journal--><rect fill="#FEFECE" filter="url(#frxlp3lym0zyj)" height="47.9375" style="stroke: #333333; stroke-width: 1.5;" width="164" x="213" y="1458.9531"/><rect fill="#FEFECE" height="5" style="stroke: #333333; stroke-width: 1.5;" width="10" x="208" y="1463.9531"/><rect fill="#FEFECE" height="5" style="stroke: #333333; stroke-width: 1.5;" width="10" x="208" y="1496.8906"/><text fill="#000000" font-family="sans-serif" font-size="12" lengthAdjust="spacingAndGlyphs" textLength="74" x="223" y="1480.0918">journalctl -u</text><text fill="#000000" font-family="sans-serif" font-size="12" lengthAdjust="spacingAndGlyphs" textLength="144" x="223" y="1494.0605">mock-adxl345-reader -f</text><path d="M1000,743.9531 L1000,875.0156 L1178,875.0156 L1178,753.9531 L1168,743.9531 L1000,743.9531 " fill="#FBFB77" filter="url(#frxlp3lym0zyj)" style="stroke: #A80036; stroke-width: 1.0;"/><path d="M1168,743.9531 L1168,753.9531 L1178,753.9531 L1168,743.9531 " fill="#FBFB77" style="stroke: #A80036; stroke-width: 1.0;"/><text fill="#000000" font-family="sans-serif" font-size="13" font-weight="bold" lengthAdjust="spacingAndGlyphs" textLength="102" x="1006" y="761.02">Step ⑦ detail:</text><text fill="#000000" font-family="sans-serif" font-size="13" lengthAdjust="spacingAndGlyphs" textLength="157" x="1006" y="776.1528">The sysfs read triggers a</text><text fill="#000000" font-family="sans-serif" font-size="13" lengthAdjust="spacingAndGlyphs" textLength="63" x="1006" y="791.2856">call chain:</text><text fill="#000000" font-family="sans-serif" font-size="13" lengthAdjust="spacingAndGlyphs" textLength="157" x="1006" y="806.4185">VFS → IIO core → driver's</text><text fill="#000000" font-family="sans-serif" font-size="13" lengthAdjust="spacingAndGlyphs" textLength="155" x="1006" y="821.5513">read_raw() → sine_milli()</text><text fill="#000000" font-family="sans-serif" font-size="13" lengthAdjust="spacingAndGlyphs" textLength="153" x="1006" y="836.6841">This is synchronous: the</text><text fill="#000000" font-family="sans-serif" font-size="13" lengthAdjust="spacingAndGlyphs" textLength="144" x="1006" y="851.8169">application blocks until</text><text fill="#000000" font-family="sans-serif" font-size="13" lengthAdjust="spacingAndGlyphs" textLength="147" x="1006" y="866.9497">the value is generated.</text><path d="M769,1090.9531 L769,1192.4531 L535.85,1196.4531 L769,1200.4531 L769,1301.6797 A0,0 0 0 0 769,1301.6797 L969,1301.6797 A0,0 0 0 0 969,1301.6797 L969,1100.9531 L959,1090.9531 L769,1090.9531 A0,0 0 0 0 769,1090.9531 " fill="#FBFB77" filter="url(#frxlp3lym0zyj)" style="stroke: #A80036; stroke-width: 1.0;"/><path d="M959,1090.9531 L959,1100.9531 L969,1100.9531 L959,1090.9531 " fill="#FBFB77" style="stroke: #A80036; stroke-width: 1.0;"/><text fill="#000000" font-family="sans-serif" font-size="13" font-weight="bold" lengthAdjust="spacingAndGlyphs" textLength="172" x="775" y="1108.02">Console output format:</text><text fill="#000000" font-family="sans-serif" font-size="13" lengthAdjust="spacingAndGlyphs" textLength="0" x="779" y="1123.1528"/><text fill="#000000" font-family="sans-serif" font-size="13" lengthAdjust="spacingAndGlyphs" textLength="152" x="775" y="1138.2856">Time     X_raw   Y_raw ...</text><text fill="#000000" font-family="sans-serif" font-size="13" lengthAdjust="spacingAndGlyphs" textLength="137" x="775" y="1168.5513">0        487     -809   ...</text><text fill="#000000" font-family="sans-serif" font-size="13" lengthAdjust="spacingAndGlyphs" textLength="137" x="775" y="1183.6841">2       -159      951   ...</text><text fill="#000000" font-family="sans-serif" font-size="13" lengthAdjust="spacingAndGlyphs" textLength="137" x="775" y="1198.8169">4       -809      487   ...</text><text fill="#000000" font-family="sans-serif" font-size="13" lengthAdjust="spacingAndGlyphs" textLength="0" x="779" y="1213.9497"/><text fill="#000000" font-family="sans-serif" font-size="13" lengthAdjust="spacingAndGlyphs" textLength="154" x="775" y="1229.0825">For the mock driver, raw</text><text fill="#000000" font-family="sans-serif" font-size="13" lengthAdjust="spacingAndGlyphs" textLength="131" x="775" y="1244.2153">values ARE in milli-g.</text><text fill="#000000" font-family="sans-serif" font-size="13" lengthAdjust="spacingAndGlyphs" textLength="152" x="775" y="1259.3481">For a real ADXL345, raw</text><text fill="#000000" font-family="sans-serif" font-size="13" lengthAdjust="spacingAndGlyphs" textLength="173" x="775" y="1274.481">values are ADC counts and</text><text fill="#000000" font-family="sans-serif" font-size="13" lengthAdjust="spacingAndGlyphs" textLength="146" x="775" y="1289.6138">need scale conversion.</text><line style="stroke: #A80036; stroke-width: 1.0;" x1="770" x2="845" y1="1148.918" y2="1148.918"/><text fill="#000000" font-family="sans-serif" font-size="13" lengthAdjust="spacingAndGlyphs" text-decoration="line-through" textLength="5" x="845" y="1152.9185">-</text><text fill="#000000" font-family="sans-serif" font-size="13" lengthAdjust="spacingAndGlyphs" textLength="5" x="850" y="1152.9185">-</text><text fill="#000000" font-family="sans-serif" font-size="13" lengthAdjust="spacingAndGlyphs" text-decoration="line-through" textLength="5" x="859" y="1152.9185">-</text><text fill="#000000" font-family="sans-serif" font-size="13" lengthAdjust="spacingAndGlyphs" text-decoration="line-through" textLength="5" x="864" y="1152.9185">-</text><text fill="#000000" font-family="sans-serif" font-size="13" lengthAdjust="spacingAndGlyphs" textLength="20" x="873" y="1152.9185">----</text><line style="stroke: #A80036; stroke-width: 1.0;" x1="893" x2="968" y1="1148.918" y2="1148.918"/><path d="M44,1609.9531 L44,1665.3516 L312,1665.3516 L312,1619.9531 L302,1609.9531 L44,1609.9531 " fill="#FBFB77" filter="url(#frxlp3lym0zyj)" style="stroke: #A80036; stroke-width: 1.0;"/><path d="M302,1609.9531 L302,1619.9531 L312,1619.9531 L302,1609.9531 " fill="#FBFB77" style="stroke: #A80036; stroke-width: 1.0;"/><text fill="#000000" font-family="sans-serif" font-size="13" font-weight="bold" lengthAdjust="spacingAndGlyphs" textLength="233" x="50" y="1627.02">Checking the service on target:</text><text fill="#000000" font-family="sans-serif" font-size="13" lengthAdjust="spacingAndGlyphs" textLength="247" x="50" y="1642.1528">systemctl status mock-adxl345-reader</text><text fill="#000000" font-family="sans-serif" font-size="13" lengthAdjust="spacingAndGlyphs" textLength="229" x="50" y="1657.2856">journalctl -u mock-adxl345-reader -f</text><!--MD5=[58bfe53aace5c5485e54bc7cb30d16a7]
link Timer to SineGen--><path d="M898,185.6531 C898,214.8131 898,265.1431 898,299.1031 " fill="none" id="Timer-&gt;SineGen" style="stroke: #A80036; stroke-width: 1.0;"/><polygon fill="#A80036" points="898,304.4131,902,295.4131,898,299.4131,894,295.4131,898,304.4131" style="stroke: #A80036; stroke-width: 1.0;"/><text fill="#000000" font-family="sans-serif" font-size="13" lengthAdjust="spacingAndGlyphs" textLength="88" x="929" y="228.52">① elapsed_ns</text><text fill="#000000" font-family="sans-serif" font-size="13" lengthAdjust="spacingAndGlyphs" textLength="148" x="899" y="243.6528">(relative to probe time)</text><!--MD5=[50d1e1355ab1424c610852b76e32c3c5]
link SineGen to ReadRaw--><path d="M866.76,366.5931 C859.53,375.4531 852.84,385.6831 849,396.4531 C841.99,416.1331 838.09,425.6331 849,443.4531 C878.98,492.4331 936.17,522.0531 986.39,539.4931 " fill="none" id="SineGen-&gt;ReadRaw" style="stroke: #A80036; stroke-width: 1.0;"/><polygon fill="#A80036" points="991.23,541.1431,984.005,534.4499,986.4981,539.5277,981.4203,542.0209,991.23,541.1431" style="stroke: #A80036; stroke-width: 1.0;"/><text fill="#000000" font-family="sans-serif" font-size="13" lengthAdjust="spacingAndGlyphs" textLength="134" x="850" y="409.52">② returns ±1000 mg</text><text fill="#000000" font-family="sans-serif" font-size="13" lengthAdjust="spacingAndGlyphs" textLength="114" x="860" y="424.6528">(sine wave on X/Y,</text><text fill="#000000" font-family="sans-serif" font-size="13" lengthAdjust="spacingAndGlyphs" textLength="99" x="867.5" y="439.7856">~980 mg on Z)</text><!--MD5=[33d4b9fce097f0fcfb646ccad8567585]
reverse link SineGen to ReadRaw--><path d="M957.01,369.3731 C968.42,377.3331 979.7,386.4531 989,396.4531 C1029.72,440.2331 1059.35,505.0831 1073.22,539.3331 " fill="none" id="SineGen&lt;-ReadRaw" style="stroke: #A80036; stroke-width: 1.0;"/><polygon fill="#A80036" points="952.8,366.5031,957.9701,374.8859,956.9269,369.326,962.4867,368.2828,952.8,366.5031" style="stroke: #A80036; stroke-width: 1.0;"/><text fill="#000000" font-family="sans-serif" font-size="13" lengthAdjust="spacingAndGlyphs" textLength="143" x="1024" y="424.52">⑦ per-channel sample</text><!--MD5=[aefd0cfbb986fce341e47988e88d0c29]
link Probe to IioDev--><path d="M1172.5,165.1731 C1338.25,171.1431 1729.57,187.1731 2057,215.4531 C2208.15,228.5131 2260.82,186.5931 2396,255.4531 C2418.86,267.0931 2438.2,288.9931 2451.22,306.7831 " fill="none" id="Probe-&gt;IioDev" style="stroke: #A80036; stroke-width: 1.0;"/><polygon fill="#A80036" points="2454.4,311.2031,2452.4142,301.5565,2451.4898,307.1374,2445.909,306.2129,2454.4,311.2031" style="stroke: #A80036; stroke-width: 1.0;"/><text fill="#000000" font-family="sans-serif" font-size="13" lengthAdjust="spacingAndGlyphs" textLength="187" x="2373" y="236.02">③ devm_iio_device_register()</text><!--MD5=[48062680075f9b32c11cccce46249545]
link Probe to Channels--><path d="M1172.71,173.4731 C1314.89,192.3831 1619.48,230.5731 1878,247.4531 C1897.57,248.7331 2212.89,247.9131 2231,255.4531 C2256.62,266.1231 2278.8,288.8531 2293.61,307.1931 " fill="none" id="Probe-&gt;Channels" style="stroke: #A80036; stroke-width: 1.0;"/><polygon fill="#A80036" points="2296.84,311.2731,2294.405,301.73,2293.7427,307.348,2288.1248,306.6857,2296.84,311.2731" style="stroke: #A80036; stroke-width: 1.0;"/><text fill="#000000" font-family="sans-serif" font-size="13" lengthAdjust="spacingAndGlyphs" textLength="173" x="1879" y="236.02">③ sets up 3 accel channels</text><!--MD5=[00f22f789c536ffd5047aea57f550e91]
link IioDev to IioInfo--><path d="M2458.26,359.7831 C2438.98,401.6831 2398.59,489.4631 2377.86,534.4931 " fill="none" id="IioDev-&gt;IioInfo" style="stroke: #A80036; stroke-width: 1.0;"/><polygon fill="#A80036" points="2375.68,539.2431,2383.0704,532.733,2377.7662,534.6992,2375.8,529.395,2375.68,539.2431" style="stroke: #A80036; stroke-width: 1.0;"/><text fill="#000000" font-family="sans-serif" font-size="13" lengthAdjust="spacingAndGlyphs" textLength="137" x="2452" y="417.02">④ iio_info.read_raw =</text><text fill="#000000" font-family="sans-serif" font-size="13" lengthAdjust="spacingAndGlyphs" textLength="157" x="2442" y="432.1528">mock_adxl345_read_raw</text><!--MD5=[cb6361d14528210505f4319de0ac2f24]
link IioDevice to SysfsX--><path d="M2068.8,353.6531 C2008.92,370.7231 1924.16,401.6431 1864,451.4531 C1835.43,475.1031 1810.93,510.2831 1795.89,534.6731 " fill="none" id="IioDevice-&gt;SysfsX" style="stroke: #A80036; stroke-width: 1.0;"/><polygon fill="#A80036" points="1793.19,539.0931,1801.2863,533.4851,1795.7897,534.8221,1794.4527,529.3256,1793.19,539.0931" style="stroke: #A80036; stroke-width: 1.0;"/><text fill="#000000" font-family="sans-serif" font-size="13" lengthAdjust="spacingAndGlyphs" textLength="64" x="1947" y="424.52">⑤ creates</text><!--MD5=[3bd02b3cdcce9e175e7f1ff946e22a53]
link IioDevice to SysfsY--><path d="M2120.97,359.7831 C2084.79,401.9331 2008.74,490.5331 1970.3,535.3131 " fill="none" id="IioDevice-&gt;SysfsY" style="stroke: #A80036; stroke-width: 1.0;"/><polygon fill="#A80036" points="1966.92,539.2431,1975.8141,535.013,1970.174,535.4468,1969.7401,529.8067,1966.92,539.2431" style="stroke: #A80036; stroke-width: 1.0;"/><text fill="#000000" font-family="sans-serif" font-size="13" lengthAdjust="spacingAndGlyphs" textLength="64" x="2089" y="424.52">⑤ creates</text><!--MD5=[bd5714fdb0678094751a02748dc46ade]
link IioDevice to SysfsZ--><path d="M2068.73,338.0731 C1889.05,342.6731 1432.44,358.0431 1376,396.4531 C1328.94,428.4831 1308.19,495.9231 1299.9,534.2531 " fill="none" id="IioDevice-&gt;SysfsZ" style="stroke: #A80036; stroke-width: 1.0;"/><polygon fill="#A80036" points="1298.86,539.2331,1304.6283,531.2502,1299.8901,534.3404,1296.7999,529.6021,1298.86,539.2331" style="stroke: #A80036; stroke-width: 1.0;"/><text fill="#000000" font-family="sans-serif" font-size="13" lengthAdjust="spacingAndGlyphs" textLength="64" x="1377" y="424.52">⑤ creates</text><!--MD5=[4c477118b64e231fe3a30a65aba04b0d]
link IioDevice to SysfsScale--><path d="M2068.75,340.4831 C1949.65,347.9031 1717.74,365.8331 1642,396.4531 C1609.94,409.4131 1611.91,430.1431 1580,443.4531 C1556.8,453.1331 1545.23,437.9831 1524,451.4531 C1493.38,470.8831 1472.84,508.3131 1461.54,534.3031 " fill="none" id="IioDevice-&gt;SysfsScale" style="stroke: #A80036; stroke-width: 1.0;"/><polygon fill="#A80036" points="1459.54,539.0131,1466.7442,532.2976,1461.4975,534.4122,1459.3828,529.1655,1459.54,539.0131" style="stroke: #A80036; stroke-width: 1.0;"/><text fill="#000000" font-family="sans-serif" font-size="13" lengthAdjust="spacingAndGlyphs" textLength="64" x="1643" y="424.52">⑤ creates</text><!--MD5=[41087f07de1c0dac2b6b0c62e61b4c8c]
link IioDevice to SysfsName--><path d="M2068.76,336.8931 C1973.21,341.1731 1804.4,362.0431 1697,451.4531 C1668.13,475.4931 1642.61,510.5931 1626.8,534.8631 " fill="none" id="IioDevice-&gt;SysfsName" style="stroke: #A80036; stroke-width: 1.0;"/><polygon fill="#A80036" points="1623.96,539.2631,1632.1915,533.8555,1626.6638,535.0572,1625.4621,529.5295,1623.96,539.2631" style="stroke: #A80036; stroke-width: 1.0;"/><text fill="#000000" font-family="sans-serif" font-size="13" lengthAdjust="spacingAndGlyphs" textLength="64" x="1781" y="424.52">⑤ creates</text><!--MD5=[65778a9b2e58432e549db93e8f43e161]
link SysfsX to Boundary--><path d="M1756.82,587.6431 C1740.95,602.6331 1718.89,621.8231 1697,635.4531 C1590.45,701.8131 1454,754.5731 1370.62,783.6531 " fill="none" id="SysfsX-&gt;Boundary" style="stroke: #A80036; stroke-width: 1.0;"/><polygon fill="#A80036" points="1365.7,785.3531,1375.5143,786.1779,1370.4231,783.7122,1372.8888,778.621,1365.7,785.3531" style="stroke: #A80036; stroke-width: 1.0;"/><text fill="#000000" font-family="sans-serif" font-size="13" lengthAdjust="spacingAndGlyphs" textLength="101" x="1677" y="666.02">⑥ read() syscall</text><!--MD5=[9ec43e99d978c9aa95920c219f873542]
link SysfsY to Boundary--><path d="M1922.67,587.6331 C1906.68,602.2531 1884.92,621.0331 1864,635.4531 C1831.9,657.5731 1823.2,663.0031 1787,677.4531 C1649.56,732.3131 1481.45,771.4531 1381.58,791.9631 " fill="none" id="SysfsY-&gt;Boundary" style="stroke: #A80036; stroke-width: 1.0;"/><polygon fill="#A80036" points="1376.58,792.9831,1386.1981,795.1027,1381.479,791.9833,1384.5984,787.2643,1376.58,792.9831" style="stroke: #A80036; stroke-width: 1.0;"/><text fill="#000000" font-family="sans-serif" font-size="13" lengthAdjust="spacingAndGlyphs" textLength="101" x="1849" y="666.02">⑥ read() syscall</text><!--MD5=[e2ff16970231eac0be589675445fbdae]
link SysfsZ to Boundary--><path d="M1295,587.8531 C1295,632.8431 1295,731.3031 1295,780.0031 " fill="none" id="SysfsZ-&gt;Boundary" style="stroke: #A80036; stroke-width: 1.0;"/><polygon fill="#A80036" points="1295,785.1331,1299,776.1331,1295,780.1331,1291,776.1331,1295,785.1331" style="stroke: #A80036; stroke-width: 1.0;"/><text fill="#000000" font-family="sans-serif" font-size="13" lengthAdjust="spacingAndGlyphs" textLength="101" x="1296" y="666.02">⑥ read() syscall</text><!--MD5=[bdca3f9dd877874f4cd0bf3bf388e3d4]
link Boundary to ReadRaw--><path d="M1282.42,785.3431 C1266.11,757.5431 1235.06,711.3631 1196,685.4531 C1185.21,678.3031 1178.69,684.7531 1168,677.4531 C1136,655.5931 1110.87,617.9631 1096.24,592.1831 " fill="none" id="Boundary-&gt;ReadRaw" style="stroke: #A80036; stroke-width: 1.0;"/><polygon fill="#A80036" points="1093.63,587.5131,1094.5423,597.3196,1096.0752,591.8744,1101.5204,593.4073,1093.63,587.5131" style="stroke: #A80036; stroke-width: 1.0;"/><text fill="#000000" font-family="sans-serif" font-size="13" lengthAdjust="spacingAndGlyphs" textLength="96" x="1179.5" y="658.52">⑦ IIO core calls</text><text fill="#000000" font-family="sans-serif" font-size="13" lengthAdjust="spacingAndGlyphs" textLength="117" x="1169" y="673.6528">.read_raw callback</text><!--MD5=[56306d71a5de492deb2408dee6b16590]
reverse link SysfsX to ReadRaw--><path d="M1767.49,534.8631 C1754.18,508.2531 1730.41,469.9831 1697,451.4531 C1648.26,424.4231 1627.69,443.6731 1572,441.4531 C1412.51,435.0831 1361.54,393.0231 1213,451.4531 C1166.22,469.8531 1124.42,512.3431 1101.21,539.3731 " fill="none" id="SysfsX&lt;-ReadRaw" style="stroke: #A80036; stroke-width: 1.0;"/><polygon fill="#A80036" points="1769.7,539.3631,1769.3283,529.5213,1767.4983,534.874,1762.1456,533.044,1769.7,539.3631" style="stroke: #A80036; stroke-width: 1.0;"/><text fill="#000000" font-family="sans-serif" font-size="13" lengthAdjust="spacingAndGlyphs" textLength="120" x="1451" y="424.52">⑦ returns int value</text><!--MD5=[14be2d1dcb7717604f723147b213cae3]
link Boundary to ReadFn--><path d="M1266.43,833.6331 C1247.54,847.7631 1221.61,864.9731 1196,874.9531 C1008.64,947.9831 771.34,971.1931 645.22,978.5531 " fill="none" id="Boundary-&gt;ReadFn" style="stroke: #A80036; stroke-width: 1.0;"/><polygon fill="#A80036" points="640.04,978.8531,649.2535,982.3332,645.0319,978.5679,648.7971,974.3462,640.04,978.8531" style="stroke: #A80036; stroke-width: 1.0;"/><text fill="#000000" font-family="sans-serif" font-size="13" lengthAdjust="spacingAndGlyphs" textLength="122" x="1096" y="918.02">⑧ fopen() / fscanf()</text><!--MD5=[9b8042a33fd40b31db587d83abdd9b37]
link ReadFn to MainLoop--><path d="M473.83,962.1931 C449.1,953.1431 423.45,940.2131 404,921.9531 C379.92,899.3331 365.95,863.3431 358.67,838.3931 " fill="none" id="ReadFn-&gt;MainLoop" style="stroke: #A80036; stroke-width: 1.0;"/><polygon fill="#A80036" points="357.3,833.5531,355.892,843.3008,358.6566,838.3656,363.5919,841.1302,357.3,833.5531" style="stroke: #A80036; stroke-width: 1.0;"/><text fill="#000000" font-family="sans-serif" font-size="13" lengthAdjust="spacingAndGlyphs" textLength="108" x="405" y="918.02">⑧ returns raw int</text><!--MD5=[6e9f1f719942fbd69450ad95b727a582]
link MainLoop to ReadFn--><path d="M398.74,828.2231 C434.97,843.9131 484.49,869.7731 518,904.9531 C531.3,918.9131 541.08,938.3031 547.53,954.1231 " fill="none" id="MainLoop-&gt;ReadFn" style="stroke: #A80036; stroke-width: 1.0;"/><polygon fill="#A80036" points="549.42,958.9131,549.8279,949.0727,547.5803,954.2639,542.3891,952.0163,549.42,958.9131" style="stroke: #A80036; stroke-width: 1.0;"/><text fill="#000000" font-family="sans-serif" font-size="13" lengthAdjust="spacingAndGlyphs" textLength="138" x="532" y="918.02">⑨ reads X, Y, Z, scale</text><!--MD5=[62367a2cce319e222ddbc97f9398c3e8]
link MainLoop to Convert--><path d="M339.41,833.6431 C330.53,847.7731 317.32,864.9831 301,874.9531 C242.24,910.8431 192.72,851.7531 149,904.9531 C139.62,916.3631 138.89,932.2631 141.09,946.6531 " fill="none" id="MainLoop-&gt;Convert" style="stroke: #A80036; stroke-width: 1.0;"/><polygon fill="#A80036" points="142.03,951.8731,144.4019,942.3141,141.1594,946.9495,136.5241,943.707,142.03,951.8731" style="stroke: #A80036; stroke-width: 1.0;"/><text fill="#000000" font-family="sans-serif" font-size="13" lengthAdjust="spacingAndGlyphs" textLength="134" x="150" y="918.02">⑨ raw × scale / 1000</text><!--MD5=[c971892dc4cd236955f3a97e9b0958ad]
link Convert to PrintFn--><path d="M197.22,1014.0331 C259.73,1055.6031 371.49,1129.9331 430.69,1169.3131 " fill="none" id="Convert-&gt;PrintFn" style="stroke: #A80036; stroke-width: 1.0;"/><polygon fill="#A80036" points="435.21,1172.3131,429.9403,1163.9926,431.0497,1169.5396,425.5027,1170.649,435.21,1172.3131" style="stroke: #A80036; stroke-width: 1.0;"/><text fill="#000000" font-family="sans-serif" font-size="13" lengthAdjust="spacingAndGlyphs" textLength="120" x="265" y="1057.02">⑩ formatted string</text><!--MD5=[be21d98d2394492c5278b4dcf24a411a]
link MainLoop to SleepFn--><path d="M332.74,833.5731 C318.94,851.7131 301.53,878.2731 294,904.9531 C289.4,921.2331 294.32,939.3731 300.78,953.9531 " fill="none" id="MainLoop-&gt;SleepFn" style="stroke: #A80036; stroke-width: 1.0;"/><polygon fill="#A80036" points="303.01,958.7531,302.8389,948.9058,300.9003,954.22,295.586,952.2813,303.01,958.7531" style="stroke: #A80036; stroke-width: 1.0;"/><text fill="#000000" font-family="sans-serif" font-size="13" lengthAdjust="spacingAndGlyphs" textLength="68" x="295" y="918.02">⑨ sleep(2)</text><!--MD5=[df1c7465da4b9aadc3275595e4c70415]
link PrintFn to Stdout--><path d="M470,1220.7331 C470,1274.8831 470,1408.6031 470,1460.6931 " fill="none" id="PrintFn-&gt;Stdout" style="stroke: #A80036; stroke-width: 1.0;"/><polygon fill="#A80036" points="470,1465.7631,474,1456.7631,470,1460.7631,466,1456.7631,470,1465.7631" style="stroke: #A80036; stroke-width: 1.0;"/><text fill="#000000" font-family="sans-serif" font-size="13" lengthAdjust="spacingAndGlyphs" textLength="148" x="471" y="1345.02">⑩ Time  X_raw  Y_raw...</text><text fill="#000000" font-family="sans-serif" font-size="13" lengthAdjust="spacingAndGlyphs" textLength="112" x="493" y="1360.1528">0s    487   -809 ...</text><text fill="#000000" font-family="sans-serif" font-size="13" lengthAdjust="spacingAndGlyphs" textLength="112" x="493" y="1375.2856">2s   -159    951 ...</text><!--MD5=[ab36287e3c311254790203ba94a5896a]
link SystemdSvc to ReaderApp--><path d="M102.63,615.4731 C90.05,636.2431 77.23,661.0831 70,685.4531 C69.0412,688.6844 68.1702,691.9836 67.3797,695.3302 C66.9844,697.0035 66.6093,698.6886 66.2534,700.383 C66.2089,700.5948 66.1647,700.8068 66.1208,701.0189 " fill="none" id="SystemdSvc-&gt;ReaderApp" style="stroke: #A80036; stroke-width: 1.0;"/><polygon fill="#A80036" points="66.1208,701.0189,71.8616,693.0161,67.134,696.1226,64.0275,691.395,66.1208,701.0189" style="stroke: #A80036; stroke-width: 1.0;"/><text fill="#000000" font-family="sans-serif" font-size="13" lengthAdjust="spacingAndGlyphs" textLength="99" x="94" y="658.52">⑪ starts at boot</text><text fill="#000000" font-family="sans-serif" font-size="13" lengthAdjust="spacingAndGlyphs" textLength="113" x="87" y="673.6528">restarts on failure</text><!--MD5=[7f768a276174df0871d4f765c5f83022]
link GMN59 to Boundary--><path d="M1178.32,809.4531 C1190.02,809.4531 1201.72,809.4531 1213.42,809.4531 " fill="none" id="GMN59-Boundary" style="stroke: #A80036; stroke-width: 1.0; stroke-dasharray: 7.0,7.0;"/><!--MD5=[d291c81674e99c522185364a0ca988f9]
link Output to GMN65--><path d="M178,1531.0344 C178,1531.4335 178,1531.834 178,1532.2356 C178,1557.9406 178,1588.5681 178,1609.9431 " fill="none" id="Output-GMN65" style="stroke: #A80036; stroke-width: 1.0; stroke-dasharray: 7.0,7.0;"/><!--MD5=[c0f565bac9fef0ec11313733e3a09e04]
@startuml


skinparam component {
  BorderColor #333333
  FontSize 12
}

skinparam rectangle {
  BorderColor #333333
  FontSize 12
}

skinparam package {
  FontSize 13
  FontStyle bold
}

title Runtime Data Flow — Kernel Module → IIO → User-Space App

package "Kernel Space" as KernelSpace #F8CECC {

  rectangle "mock_adxl345.ko" as Driver {
    component "mock_adxl345_probe()\nInitializes driver" as Probe
    component "mock_adxl345_read_raw()\nIIO read callback" as ReadRaw
    component "sine_milli()\nParabolic sine approx\n(no float math)" as SineGen
    component "ktime_get_ns()\nTime reference" as Timer
  }

  rectangle "IIO Subsystem" as IIO #E1D5E7 {
    component "iio_dev\n(device struct)" as IioDev
    component "iio_chan_spec[3]\n(X, Y, Z channels)" as Channels
    component "iio_info\n(.read_raw callback)" as IioInfo
    component "/sys/bus/iio/devices/\niio:device0/" as IioDevice
  }

  rectangle "sysfs VFS Layer" as Sysfs #FFF2CC {
    component "in_accel_x_raw\n(read returns mg)" as SysfsX
    component "in_accel_y_raw\n(read returns mg)" as SysfsY
    component "in_accel_z_raw\n(read returns mg)" as SysfsZ
    component "in_accel_scale\n(4000 ug/LSB)" as SysfsScale
    component "name\n→ \"mock-adxl345\"" as SysfsName
  }
}

rectangle "Kernel / User Boundary\n(sysfs file read)" as Boundary #F5F5F5 {
}

package "User Space" as UserSpace #DAE8FC {

  component "systemd\nmock-adxl345-reader.service\n\nType=simple\nRestart=on-failure\nUser=root" as SystemdSvc

  rectangle "mock-adxl345-reader\n(User-space application)" as ReaderApp {
    component "main()\nInfinite loop" as MainLoop
    component "read_sysfs_int()\nParses integer from file" as ReadFn
    component "value_mg = raw ×\nscale / 1000\nConvert to milli-g" as Convert
    component "printf()\nFormatted output" as PrintFn
    component "sleep(2)\n2-second interval" as SleepFn
  }

  rectangle "Output" as Output {
    component "stdout / journal" as Stdout
    component "journalctl -u\nmock-adxl345-reader -f" as Journal
  }
}


Timer -down-> SineGen : "① elapsed_ns\n(relative to probe time)"

SineGen -down-> ReadRaw : "② returns ±1000 mg\n(sine wave on X/Y,\n~980 mg on Z)"

Probe -down-> IioDev : "③ devm_iio_device_register()"
Probe -down-> Channels : "③ sets up 3 accel channels"

IioDev -down-> IioInfo : "④ iio_info.read_raw =\nmock_adxl345_read_raw"

IioDevice -down-> SysfsX : "⑤ creates"
IioDevice -down-> SysfsY : "⑤ creates"
IioDevice -down-> SysfsZ : "⑤ creates"
IioDevice -down-> SysfsScale : "⑤ creates"
IioDevice -down-> SysfsName : "⑤ creates"

SysfsX -down-> Boundary : "⑥ read() syscall"
SysfsY -down-> Boundary : "⑥ read() syscall"
SysfsZ -down-> Boundary : "⑥ read() syscall"

Boundary -down-> ReadRaw : "⑦ IIO core calls\n.read_raw callback"
ReadRaw -up-> SineGen : "⑦ per-channel sample"
ReadRaw -up-> SysfsX : "⑦ returns int value"

Boundary -down-> ReadFn : "⑧ fopen() / fscanf()"
ReadFn -down-> MainLoop : "⑧ returns raw int"

MainLoop -down-> ReadFn : "⑨ reads X, Y, Z, scale"
MainLoop -down-> Convert : "⑨ raw × scale / 1000"
Convert -down-> PrintFn : "⑩ formatted string"
MainLoop -down-> SleepFn : "⑨ sleep(2)"

PrintFn -down-> Stdout : "⑩ Time  X_raw  Y_raw...\n  0s    487   -809 ...\n  2s   -159    951 ..."

SystemdSvc -down-> ReaderApp : "⑪ starts at boot\nrestarts on failure"

note left of Boundary
  **Step ⑦ detail:**
  The sysfs read triggers a
  call chain:
  VFS → IIO core → driver's
  read_raw() → sine_milli()
  This is synchronous: the
  application blocks until
  the value is generated.
end note

note right of PrintFn
  **Console output format:**

  Time     X_raw   Y_raw ...
  - - - - - - - - - - - - - - - - - - - - - - - -
  0        487     -809   ...
  2       -159      951   ...
  4       -809      487   ...

  For the mock driver, raw
  values ARE in milli-g.
  For a real ADXL345, raw
  values are ADC counts and
  need scale conversion.
end note

note bottom of Output
  **Checking the service on target:**
  systemctl status mock-adxl345-reader
  journalctl -u mock-adxl345-reader -f
end note

@enduml

PlantUML version 1.2020.02(Sun Mar 01 11:22:07 CET 2020)
(GPL source distribution)
Java Runtime: OpenJDK Runtime Environment
JVM: OpenJDK 64-Bit Server VM
Java Version: 11.0.31+11-post-1ubuntu1-22.04.2-Ubuntu
Operating System: Linux
Default Encoding: UTF-8
Language: en
Country: null
--></g></svg>